<svg width="46" height="46" viewBox="0 0 46 46" fill="none" xmlns="http://www.w3.org/2000/svg">
<path opacity="0.3" d="M7.66699 34.4993L11.5003 30.666H38.3337V7.66602H7.66699V34.4993ZM28.7503 17.2493H32.5837V21.0827H28.7503V17.2493ZM21.0837 17.2493H24.917V21.0827H21.0837V17.2493ZM13.417 17.2493H17.2503V21.0827H13.417V17.2493Z" fill="black"/>
<path d="M38.333 3.83398H7.66634C5.55801 3.83398 3.83301 5.55898 3.83301 7.66732V42.1673L11.4997 34.5007H38.333C40.4413 34.5007 42.1663 32.7757 42.1663 30.6673V7.66732C42.1663 5.55898 40.4413 3.83398 38.333 3.83398ZM38.333 30.6673H11.4997L7.66634 34.5007V7.66732H38.333V30.6673ZM13.4163 17.2507H17.2497V21.084H13.4163V17.2507ZM21.083 17.2507H24.9163V21.084H21.083V17.2507ZM28.7497 17.2507H32.583V21.084H28.7497V17.2507Z" fill="black"/>
</svg>
