<svg width="46" height="46" viewBox="0 0 46 46" fill="none" xmlns="http://www.w3.org/2000/svg">
<path opacity="0.3" d="M7.66699 11.5H27.0253C27.447 13.5508 28.5395 15.3333 30.0345 16.6942L23.0003 21.0833L7.66699 11.5ZM7.66699 15.3333V34.5H38.3337V18.975C36.6037 19.3297 34.8084 19.1834 33.1587 18.5533L23.0003 24.9167L7.66699 15.3333Z" fill="black"/>
<path d="M38.333 18.9756C39.7513 18.6882 41.0547 18.0556 42.1663 17.2123V34.5007C42.1663 36.609 40.4413 38.334 38.333 38.334H7.66634C5.55801 38.334 3.83301 36.609 3.83301 34.5007V11.5007C3.83301 9.39232 5.55801 7.66732 7.66634 7.66732H27.0247C26.9097 8.28065 26.833 8.93232 26.833 9.58398C26.833 10.2357 26.9097 10.8873 27.0247 11.5007H7.66634L22.9997 21.084L30.0338 16.6948C30.9347 17.519 31.9888 18.1515 33.158 18.5731L22.9997 24.9173L7.66634 15.334V34.5007H38.333V18.9756ZM30.6663 9.58398C30.6663 12.7657 33.2347 15.334 36.4163 15.334C39.598 15.334 42.1663 12.7657 42.1663 9.58398C42.1663 6.40232 39.598 3.83398 36.4163 3.83398C33.2347 3.83398 30.6663 6.40232 30.6663 9.58398Z" fill="black"/>
</svg>
