<svg width="343" height="234" viewBox="0 0 343 234" fill="none" xmlns="http://www.w3.org/2000/svg">
<g clip-path="url(#clip0_578_1900)">
<path d="M84.9791 50.9644C84.8642 52.4284 86.3291 53.7915 86.5704 55.1714C86.8201 56.5991 85.9247 58.4123 86.5087 59.6932C87.1012 60.9925 89.0222 61.4139 89.9104 62.5028C90.7985 63.5918 90.8889 65.6348 92.0241 66.4533C93.1428 67.2605 95.0049 66.6316 96.317 67.1184C97.585 67.5889 98.6402 69.3131 100.045 69.4328C101.451 69.5525 102.759 68.0262 104.083 67.7748C105.453 67.5147 107.194 68.4476 108.423 67.8387C109.67 67.2214 110.075 65.2198 111.12 64.2945C112.165 63.3691 114.126 63.2754 114.911 62.0926C115.686 60.9267 115.083 58.987 115.55 57.6199C116.001 56.2987 117.656 55.1993 117.771 53.7349C117.886 52.2704 116.421 50.9077 116.18 49.5279C115.93 48.1001 116.825 46.2869 116.241 45.006C115.649 43.7068 113.728 43.2854 112.84 42.1964C111.952 41.1075 111.861 39.0644 110.726 38.246C109.607 37.4388 107.745 38.0677 106.433 37.5808C105.165 37.1104 104.11 35.3862 102.705 35.2664C101.3 35.1467 99.991 36.6726 98.667 36.924C97.2967 37.1842 95.556 36.2513 94.327 36.8602C93.08 37.4775 92.6752 39.479 91.63 40.4044C90.5848 41.3297 88.6239 41.4235 87.8384 42.6063C87.064 43.7722 87.6672 45.7123 87.2 47.079C86.7485 48.4006 85.0932 49.4999 84.9791 50.9644Z" fill="#0F1011"/>
<path d="M107.581 68.1792C107.581 68.1792 104.618 66.546 105.272 58.1432L99.1523 56.9668C99.1523 56.9668 99.8463 64.4993 96.7529 66.8939L107.581 68.1792Z" fill="#E98862"/>
<g opacity="0.15">
<path d="M98.0039 65.3187L103.084 61.2626L99.0912 61.2227C98.9769 62.6467 98.6081 64.0359 98.0039 65.3187Z" fill="black"/>
</g>
<path d="M108.74 54.8822C108.319 57.432 106.985 59.847 104.828 60.6726C102.476 61.6476 99.9312 62.0084 97.4149 61.7232C90.7161 61.157 92.0275 45.2871 95.2051 42.2018C98.3828 39.1164 107.717 41.0597 108.857 46.2144C109.446 48.882 109.141 52.4557 108.74 54.8822Z" fill="#E98862"/>
<path d="M99.1555 52.9298C99.462 52.9298 99.7105 52.671 99.7105 52.3516C99.7105 52.0323 99.462 51.7734 99.1555 51.7734C98.849 51.7734 98.6006 52.0323 98.6006 52.3516C98.6006 52.671 98.849 52.9298 99.1555 52.9298Z" fill="#0F1011"/>
<path d="M94.7776 52.5587C95.0841 52.5587 95.3326 52.2999 95.3326 51.9805C95.3326 51.6612 95.0841 51.4023 94.7776 51.4023C94.4711 51.4023 94.2227 51.6612 94.2227 51.9805C94.2227 52.2999 94.4711 52.5587 94.7776 52.5587Z" fill="#0F1011"/>
<path d="M93.8143 50.7494C93.7451 50.7499 93.6786 50.7217 93.6294 50.6711C93.5801 50.6204 93.5522 50.5515 93.5518 50.4794C93.5513 50.4074 93.5784 50.3381 93.6269 50.2868C93.6755 50.2355 93.7417 50.2064 93.8109 50.2059L95.2808 50.1855H95.2846C95.352 50.1877 95.416 50.2171 95.4631 50.2674C95.5103 50.3177 95.5368 50.3851 95.5373 50.4554C95.5377 50.5257 95.512 50.5934 95.4655 50.6443C95.4191 50.6953 95.3554 50.7255 95.288 50.7286L93.8181 50.7494H93.8143Z" fill="#0F1011"/>
<path d="M100.352 51.3018C100.331 51.3018 100.311 51.2993 100.291 51.2942L98.8413 50.9323C98.8071 50.9248 98.7748 50.9104 98.7461 50.8897C98.7174 50.869 98.693 50.8425 98.6743 50.8118C98.6556 50.7811 98.6431 50.7468 98.6373 50.7109C98.6316 50.675 98.6328 50.6384 98.641 50.603C98.6491 50.5676 98.6639 50.5343 98.6846 50.5051C98.7053 50.4758 98.7314 50.4512 98.7614 50.4326C98.7914 50.4141 98.8247 50.402 98.8593 50.397C98.8939 50.3921 98.929 50.3945 98.9627 50.404L100.412 50.7659C100.474 50.7815 100.529 50.8202 100.565 50.8747C100.602 50.9292 100.618 50.9958 100.61 51.0618C100.603 51.1278 100.572 51.1887 100.525 51.2329C100.477 51.2771 100.416 51.3016 100.352 51.3018Z" fill="#0F1011"/>
<path d="M98.9031 56.9039C98.9031 56.9039 96.8545 57.1309 95.418 56.6094C95.418 56.6094 95.4306 58.0152 97.0518 58.152C98.673 58.2889 98.9031 56.9039 98.9031 56.9039Z" fill="white"/>
<path d="M104.227 48.283C103.825 54.2581 104.457 60.2599 106.091 66.0025C106.091 66.0025 110.761 57.6128 111.483 50.6277C112.16 44.0796 107.526 40.2182 104.397 39.4919C92.505 36.733 91.6494 45.7839 91.6494 45.7839C93.8156 50.4777 105.513 50.4574 105.513 50.4574" fill="#0F1011"/>
<path d="M101.96 54.8391C101.932 55.1619 101.965 55.4875 102.058 55.797C102.15 56.1065 102.301 56.3937 102.502 56.6419C102.702 56.8902 102.947 57.0946 103.224 57.2433C103.5 57.3921 103.803 57.4821 104.113 57.5083C104.423 57.5346 104.735 57.4964 105.031 57.396C105.327 57.2957 105.601 57.1351 105.837 56.9237C106.073 56.7123 106.266 56.4542 106.406 56.1644C106.545 55.8746 106.628 55.5588 106.65 55.2353C106.68 54.9134 106.648 54.5884 106.555 54.2798C106.463 53.9711 106.311 53.685 106.11 53.4386C105.909 53.1921 105.663 52.9903 105.385 52.8453C105.108 52.7002 104.805 52.6148 104.495 52.5941C102.818 52.5386 102.066 53.4899 101.96 54.8391Z" fill="#E98862"/>
<g opacity="0.15">
<path d="M96.6949 55.5587C96.7407 55.5587 96.7851 55.5416 96.8199 55.5104C96.8547 55.4792 96.8775 55.4361 96.8843 55.3888C96.8912 55.3416 96.8815 55.2933 96.857 55.2529C96.8326 55.2124 96.795 55.1825 96.7512 55.1684L95.6221 54.8093L96.4099 52.9769C96.4206 52.953 96.4266 52.9271 96.4276 52.9007C96.4286 52.8743 96.4246 52.848 96.4157 52.8232C96.4068 52.7985 96.3934 52.7758 96.376 52.7565C96.3587 52.7372 96.3379 52.7217 96.3148 52.7109C96.2917 52.7001 96.2667 52.6941 96.2414 52.6934C96.216 52.6927 96.1908 52.6973 96.1672 52.7068C96.1435 52.7163 96.1219 52.7307 96.1036 52.7489C96.0854 52.7672 96.0707 52.7891 96.0606 52.8133L95.1836 54.8524C95.1725 54.8782 95.1669 54.9062 95.167 54.9345C95.1671 54.9628 95.173 54.9907 95.1843 55.0165C95.1955 55.0422 95.2119 55.0651 95.2323 55.0838C95.2527 55.1024 95.2767 55.1163 95.3027 55.1245L96.6389 55.5507C96.6571 55.5562 96.6759 55.5589 96.6949 55.5587Z" fill="black"/>
</g>
<path d="M343.002 232.432H0C3.75824 222.445 10.6991 213.974 20.4832 211.461C34.7962 207.79 49.9429 217.885 64.2236 214.089C72.3372 211.934 78.7246 205.657 85.4364 200.442C110.759 180.773 145.458 174.96 175.422 185.371C191.084 190.811 205.355 200.323 221.399 204.365C242.147 209.596 263.843 205.258 285.178 204.543C305.957 203.849 335.729 212.671 343.002 232.432Z" fill="#F3F5FD"/>
<path d="M296.404 157.937C293.952 165.674 285.492 172.549 288.02 178.24C288.981 180.402 289.946 182.665 290.391 184.975C290.679 186.353 290.727 187.774 290.532 189.169C289.621 195.194 284.209 199.197 279.177 202.313C278.867 202.505 278.553 202.7 278.239 202.896C273.47 205.873 268.476 209.3 266.944 214.795C266.094 217.848 266.469 221.112 266.117 224.268C265.783 227.169 264.838 229.957 263.348 232.432H231.212C228.358 229.156 228.596 223.649 230.767 219.787C233.092 215.653 237.018 212.844 240.56 209.787C243.62 207.146 246.604 203.965 247.772 200.087C247.958 199.473 248.095 198.844 248.182 198.207C248.465 196.108 248.312 185.386 251.805 178.786C257.205 168.595 265.964 171.105 268.641 165.355C269.667 163.152 270.552 136.086 287.614 141.086C289.278 141.549 290.833 142.361 292.186 143.471C293.539 144.582 294.661 145.967 295.483 147.544C296.306 149.12 296.811 150.855 296.969 152.642C297.128 154.428 296.935 156.23 296.404 157.937Z" fill="#C1D8ED"/>
<path d="M327.613 200.257C327.123 200.609 326.596 200.9 326.043 201.127C321.439 202.927 308.636 202.727 306.763 207.464C305.882 209.69 305.672 212.148 304.917 214.427C303.205 219.594 298.686 223.469 293.631 224.925C291.811 225.448 289.927 225.692 288.127 226.274C284.649 227.403 281.769 229.674 279.238 232.431H237.734C237.715 229.564 238.392 226.737 239.702 224.215C241.012 221.693 242.911 219.556 245.225 218.002C249.84 214.97 255.669 214.403 260.2 211.235C263.187 209.144 265.336 206.123 267.04 202.783C268.124 200.598 269.082 198.348 269.908 196.043C271.176 192.616 272.501 188.937 275.381 186.814C276.794 185.858 278.359 185.174 280.004 184.795C284.163 183.662 287.361 184.328 290.39 184.974C294.067 185.756 297.499 186.503 302.106 183.953C310.279 179.428 322.228 156.862 334.17 178.302C338.957 186.902 332.35 196.953 327.613 200.257Z" fill="#8DDBE0"/>
<path d="M67.3266 157.937C69.7777 165.674 78.2379 172.549 75.7102 178.24C74.7489 180.402 73.7834 182.665 73.3395 184.975C73.0511 186.353 73.0031 187.774 73.1978 189.169C74.1093 195.194 79.5209 199.197 84.5533 202.313C84.8635 202.505 85.1772 202.7 85.4916 202.896C90.2598 205.873 95.254 209.3 96.7859 214.795C97.6361 217.848 97.2608 221.112 97.6131 224.268C97.947 227.169 98.8925 229.957 100.382 232.432H132.518C135.372 229.156 135.134 223.649 132.963 219.787C130.638 215.653 126.712 212.844 123.17 209.787C120.109 207.146 117.126 203.965 115.958 200.087C115.773 199.473 115.635 198.844 115.548 198.207C115.265 196.108 115.418 185.386 111.925 178.786C106.525 168.595 97.7663 171.105 95.0893 165.355C94.0629 163.152 93.1782 136.086 76.1162 141.086C74.4525 141.549 72.8968 142.361 71.5439 143.471C70.191 144.582 69.0692 145.967 68.2469 147.544C67.4246 149.12 66.9189 150.855 66.7607 152.642C66.6025 154.428 66.795 156.23 67.3266 157.937Z" fill="#C1D8ED"/>
<path d="M36.1158 200.257C36.6058 200.609 37.1326 200.9 37.6861 201.127C42.2899 202.927 55.0932 202.727 56.966 207.464C57.8468 209.69 58.0575 212.148 58.8119 214.427C60.5239 219.594 65.0431 223.469 70.0985 224.925C71.9177 225.448 73.802 225.692 75.6017 226.274C79.0795 227.403 81.9592 229.674 84.4907 232.431H125.996C126.014 229.564 125.337 226.737 124.028 224.215C122.718 221.693 120.819 219.556 118.505 218.002C113.89 214.97 108.06 214.403 103.53 211.235C100.543 209.144 98.3947 206.123 96.6904 202.783C95.606 200.598 94.6481 198.348 93.8218 196.043C92.5541 192.616 91.229 188.937 88.3489 186.814C86.9365 185.858 85.3706 185.174 83.7259 184.795C79.5671 183.662 76.3688 184.328 73.3397 184.974C69.6631 185.756 66.2315 186.503 61.6238 183.953C53.4513 179.428 41.5018 156.862 29.5607 178.302C24.773 186.902 31.3795 196.953 36.1158 200.257Z" fill="#8DDBE0"/>
<path d="M228.419 3.52148H134.435C127.238 3.52148 121.403 9.60033 121.403 17.099V216.903C121.403 224.401 127.238 230.48 134.435 230.48H228.419C235.616 230.48 241.451 224.401 241.451 216.903V17.099C241.451 9.60033 235.616 3.52148 228.419 3.52148Z" fill="white"/>
<path d="M228.419 234H134.435C130.084 233.995 125.913 232.192 122.837 228.987C119.76 225.781 118.029 221.435 118.024 216.902V17.0982C118.03 12.565 119.76 8.21911 122.837 5.01374C125.913 1.80837 130.085 0.00528017 134.435 0L228.42 0C232.771 0.00538576 236.942 1.80852 240.018 5.01388C243.095 8.21924 244.825 12.5651 244.831 17.0982V216.902C244.825 221.435 243.095 225.781 240.018 228.987C236.942 232.192 232.77 233.995 228.419 234ZM134.435 7.04133C131.877 7.04471 129.424 8.10522 127.614 9.99029C125.805 11.8754 124.787 14.4311 124.784 17.097V216.901C124.787 219.567 125.805 222.122 127.614 224.007C129.424 225.893 131.877 226.953 134.435 226.956H228.42C230.979 226.953 233.432 225.893 235.241 224.007C237.05 222.122 238.068 219.567 238.071 216.901V17.0982C238.068 14.4323 237.05 11.8765 235.241 9.99149C233.432 8.10642 230.979 7.04591 228.42 7.04253L134.435 7.04133Z" fill="#DEE8F5"/>
<path d="M160.849 3.52148H202.006V11.8413C202.006 12.6592 201.851 13.469 201.551 14.2246C201.25 14.9801 200.81 15.6667 200.255 16.245C199.7 16.8233 199.041 17.282 198.316 17.595C197.591 17.9079 196.813 18.069 196.029 18.069H166.826C165.241 18.069 163.72 17.4129 162.599 16.245C161.478 15.077 160.849 13.493 160.849 11.8413V3.52148H160.849Z" fill="#DEE8F5"/>
<path d="M227.42 194.286H144.714L135.435 202.402V140.537H227.42V194.286Z" fill="#C1D8ED"/>
<path d="M266.142 122.263L255.658 113.983H158.151V47.0137H266.142V122.263Z" fill="#DEE8F5"/>
<path d="M78.0925 78.6886C78.0925 78.6886 74.0926 74.9357 73.8697 73.666C73.6468 72.3963 76.7551 70.1278 76.7551 70.1278C76.7551 70.1278 75.9592 69.1813 75.1883 68.1123C74.2986 66.8784 73.443 65.4814 73.8827 65.1873C74.307 64.9036 75.3526 65.9531 76.3947 67.2224C77.7351 68.8545 79.0656 70.8504 79.0656 70.8504C79.0656 70.8504 78.5482 68.6434 79.3613 68.5536C79.6956 68.5169 79.9358 68.8728 80.364 70.4374C80.85 72.2215 81.8725 74.9245 81.8725 74.9245L78.0925 78.6886Z" fill="#E98862"/>
<path d="M86.0973 99.4942C85.2666 99.4943 84.4548 99.2361 83.7657 98.7527C83.0766 98.2693 82.5416 97.5828 82.2292 96.7808L74.7227 77.5207L82.459 74.2486L84.7316 80.0797L86.5156 70.791L94.7042 72.4977L90.1907 96.0007C90.0146 96.9181 89.5594 97.7519 88.8925 98.3783C88.2257 99.0048 87.3827 99.3905 86.4887 99.4783C86.3597 99.4883 86.2279 99.4942 86.0973 99.4942Z" fill="#367CFF"/>
<path d="M72.5474 83.8813L77.1899 83.1096C77.3723 83.0793 77.5466 83.0091 77.7012 82.9038C77.8558 82.7984 77.9874 82.6602 78.0872 82.4982C78.187 82.3363 78.2529 82.1542 78.2805 81.9638C78.3081 81.7735 78.2968 81.5792 78.2473 81.3938L75.3267 70.4694C75.2401 70.1458 75.0423 69.8667 74.771 69.6853C74.4996 69.5039 74.1736 69.4329 73.8553 69.4858L69.2127 70.258C69.0303 70.2883 68.856 70.3584 68.7014 70.4638C68.5468 70.5691 68.4153 70.7073 68.3154 70.8693C68.2156 71.0313 68.1497 71.2134 68.1221 71.4037C68.0945 71.5941 68.1058 71.7883 68.1553 71.9738L71.0763 82.8965C71.1625 83.2203 71.3601 83.4998 71.6314 83.6814C71.9028 83.8631 72.2288 83.9342 72.5474 83.8813Z" fill="#C1D8ED"/>
<path d="M114.611 182.087C107.65 180.255 106.964 179.982 106.739 179.892L109.615 172.067C109.592 172.057 109.563 172.046 109.527 172.033C110.093 172.228 113.629 173.186 116.58 173.963L114.611 182.087Z" fill="#E98862"/>
<path d="M114.298 193.032C114.228 193.246 114.117 193.442 113.971 193.608C113.826 193.775 113.648 193.909 113.451 194.001C113.254 194.093 113.04 194.141 112.824 194.143C112.607 194.145 112.393 194.101 112.194 194.013C111.918 193.891 111.681 193.689 111.511 193.432C111.342 193.174 111.246 192.871 111.236 192.559L111.242 182.273C111.242 182.074 111.284 181.877 111.365 181.697C111.445 181.516 111.562 181.356 111.707 181.227C112.963 180.252 113.886 178.883 114.34 177.321C114.645 176.087 114.612 174.789 114.244 173.574C114.204 173.465 114.195 173.346 114.218 173.231C114.24 173.117 114.294 173.011 114.372 172.927C114.45 172.843 114.549 172.783 114.658 172.756C114.768 172.728 114.882 172.733 114.988 172.771L119.328 174.287C119.456 174.332 119.574 174.403 119.676 174.495C119.778 174.588 119.861 174.7 119.921 174.826C119.981 174.952 120.016 175.09 120.025 175.23C120.034 175.37 120.016 175.511 119.973 175.644L114.298 193.032Z" fill="#C1D8ED"/>
<path d="M95.5551 228.946C95.5551 228.946 95.5283 220.269 95.5283 219.5H103.571C103.571 220.266 103.598 228.917 103.598 228.917L95.5551 228.946Z" fill="#E98862"/>
<path d="M116.626 108.787C111.466 103.411 87.4898 110.663 87.4898 110.663L87.468 110.819L86.9759 110.531C80.8788 123.3 72.244 142.413 66.2682 155.431C65.8119 156.326 65.5369 157.31 65.4605 158.32C65.384 159.33 65.5076 160.346 65.8236 161.305C66.1396 162.263 66.6413 163.144 67.2976 163.892C67.9538 164.64 68.7506 165.24 69.6385 165.654L95.739 177.753C94.3985 193.091 92.8601 208.417 91.5786 223.731L105.64 225.56C108.195 207.29 110.823 189.041 113.169 170.748L113.552 169.851L113.3 169.734C114.739 158.464 116.068 147.177 117.204 135.856C117.423 133.554 117.615 131.051 117.71 128.617C117.709 128.618 119.403 111.68 116.626 108.787ZM82.7075 155.554C87.7392 146.815 93.6586 136.516 98.7837 127.776C98.521 139.253 97.868 150.722 97.0101 162.184L82.7075 155.554Z" fill="#262626"/>
<path d="M80.0231 81.017L77.2848 84.8876C77.2848 84.8876 69.9257 83.3506 69.2352 77.4437C69.1555 76.7653 69.2249 74.8819 70.033 75.1345C72.1394 75.7921 74.7609 79.1595 76.5989 79.6076C76.1795 78.8247 75.6678 77.7198 75.998 77.5179C76.8646 76.9864 79.2009 80.1934 80.0231 81.017Z" fill="#E98862"/>
<path d="M117.036 68.8621C115.285 67.0386 112.264 65.8614 108.58 65.8574C108.303 68.0956 95.259 68.1036 95.1598 65.9089C94.6619 65.9169 94.2751 65.9253 94.0338 65.9372C85.18 66.3363 85.206 73.7698 86.0769 81.9863L78.7921 78.6388L75.4219 86.5991L87.016 91.927C87.0237 92.1664 87.0298 92.4059 87.0321 92.6453C87.1818 105.598 83.823 108.04 85.4775 111.998C87.0819 115.841 118.613 117.438 119.035 110.678C119.303 106.376 115.664 102.621 115.664 94.2378C115.664 85.8545 123.068 75.1469 117.036 68.8621Z" fill="#367CFF"/>
<path d="M85.7859 232.355C85.5696 232.354 85.3558 232.307 85.1579 232.216C84.96 232.125 84.7823 231.992 84.6357 231.827C84.4892 231.661 84.3771 231.465 84.3063 231.252C84.2355 231.039 84.2077 230.813 84.2245 230.589C84.2478 230.277 84.356 229.979 84.5364 229.73C84.7168 229.48 84.9619 229.29 85.2428 229.181L94.6038 225.914C94.7852 225.851 94.9774 225.83 95.1673 225.852C95.3572 225.874 95.5403 225.939 95.7041 226.041C96.9911 226.972 98.5305 227.447 100.096 227.398C101.316 227.308 102.486 226.862 103.474 226.112C103.561 226.038 103.666 225.991 103.778 225.977C103.889 225.963 104.002 225.982 104.104 226.032C104.205 226.082 104.291 226.161 104.351 226.26C104.41 226.359 104.442 226.474 104.442 226.591V231.362C104.442 231.502 104.415 231.642 104.363 231.772C104.312 231.902 104.236 232.02 104.14 232.119C104.044 232.218 103.931 232.297 103.806 232.35C103.681 232.404 103.547 232.431 103.412 232.43L85.7859 232.355Z" fill="#C1D8ED"/>
<path d="M95.1602 65.9093C95.2593 68.104 96.4049 71.3322 99.9398 71.5756C104.651 71.8988 108.304 68.096 108.58 65.8574H108.568C103.931 65.8574 97.864 65.8654 95.1602 65.9093Z" fill="#E98862"/>
<path d="M212.147 106.777C226.34 106.777 237.846 94.789 237.846 80.0009C237.846 65.2128 226.34 53.2246 212.147 53.2246C197.953 53.2246 186.447 65.2128 186.447 80.0009C186.447 94.789 197.953 106.777 212.147 106.777Z" fill="#F3F5FD"/>
<path d="M222.093 75.2573H220.676V71.9601C220.661 69.6135 219.756 67.3684 218.158 65.7147C216.56 64.0609 214.399 63.1328 212.147 63.1328C209.894 63.1328 207.734 64.0609 206.136 65.7147C204.538 67.3684 203.633 69.6135 203.617 71.9601V75.2573H202.2C201.553 75.2573 200.932 75.5253 200.474 76.0023C200.016 76.4793 199.759 77.1262 199.759 77.8008V94.381C199.759 95.0555 200.016 95.7025 200.474 96.1795C200.932 96.6564 201.553 96.9244 202.2 96.9244H222.093C222.741 96.9244 223.361 96.6564 223.819 96.1795C224.277 95.7025 224.534 95.0555 224.534 94.381V77.8024C224.534 77.4682 224.471 77.1373 224.349 76.8285C224.226 76.5198 224.046 76.2392 223.82 76.0028C223.593 75.7665 223.324 75.579 223.028 75.4511C222.731 75.3232 222.414 75.2573 222.093 75.2573ZM206.391 71.9601C206.403 70.3779 207.015 68.8649 208.093 67.7507C209.171 66.6364 210.628 66.0112 212.147 66.0112C213.666 66.0112 215.123 66.6364 216.201 67.7507C217.279 68.8649 217.891 70.3779 217.904 71.9601V75.2573H206.391V71.9601Z" fill="#0CBC8B"/>
<path d="M212.146 89.9434C214.097 89.9434 215.679 88.2955 215.679 86.2627C215.679 84.2299 214.097 82.582 212.146 82.582C210.195 82.582 208.614 84.2299 208.614 86.2627C208.614 88.2955 210.195 89.9434 212.146 89.9434Z" fill="white"/>
<path d="M180.691 187.3C191.222 187.3 199.76 178.405 199.76 167.432C199.76 156.46 191.222 147.564 180.691 147.564C170.159 147.564 161.622 156.46 161.622 167.432C161.622 178.405 170.159 187.3 180.691 187.3Z" fill="#DEE8F5"/>
<path d="M188.071 163.914H187.02V161.467C187.02 159.718 186.353 158.041 185.166 156.804C183.98 155.568 182.37 154.873 180.691 154.873C179.013 154.873 177.403 155.568 176.216 156.804C175.029 158.041 174.362 159.718 174.362 161.467V163.914H173.312C172.831 163.914 172.37 164.112 172.031 164.466C171.691 164.82 171.5 165.3 171.5 165.801V178.104C171.5 178.351 171.547 178.597 171.638 178.826C171.729 179.055 171.862 179.263 172.031 179.438C172.199 179.613 172.399 179.752 172.618 179.847C172.838 179.942 173.074 179.991 173.312 179.991H188.071C188.551 179.991 189.012 179.792 189.352 179.438C189.692 179.084 189.882 178.604 189.883 178.104V165.801C189.883 165.3 189.692 164.82 189.352 164.466C189.012 164.112 188.551 163.914 188.071 163.914ZM176.42 161.467C176.42 160.287 176.87 159.155 177.671 158.32C178.472 157.486 179.558 157.017 180.691 157.017C181.824 157.017 182.911 157.486 183.712 158.32C184.513 159.155 184.963 160.287 184.963 161.467V163.914H176.42V161.467Z" fill="#0CBC8B"/>
<path d="M180.691 174.81C182.139 174.81 183.313 173.587 183.313 172.079C183.313 170.57 182.139 169.348 180.691 169.348C179.244 169.348 178.07 170.57 178.07 172.079C178.07 173.587 179.244 174.81 180.691 174.81Z" fill="white"/>
</g>
<defs>
<clipPath id="clip0_578_1900">
<rect width="343" height="234" fill="white"/>
</clipPath>
</defs>
</svg>
