<svg width="512" height="403" viewBox="0 0 512 403" fill="none" xmlns="http://www.w3.org/2000/svg">
<path d="M69.1867 368.519C32.291 419.025 -18.9924 402.518 -40.0222 387.951L-366 183.578L145.275 -758L276.436 -715.224C298.586 -702.718 337.193 -662.867 314.429 -603.502C285.973 -529.295 317.893 -511.77 337.208 -485.564C356.521 -459.358 521.429 -290.596 511.031 -216.988C500.88 -145.129 425.857 -119.363 449.112 -45.9071C467.714 12.858 453.513 49.5494 446.722 62.0563C439.931 74.5632 417.193 105.902 360.428 117.415C289.473 131.806 264.856 193.493 252.815 264.724C240.775 335.954 206.68 336.969 175.945 331.797C145.211 326.623 115.306 305.387 69.1867 368.519Z" fill="url(#paint0_linear_578_1589)"/>
<defs>
<linearGradient id="paint0_linear_578_1589" x1="-145.419" y1="202.443" x2="450.152" y2="-216.539" gradientUnits="userSpaceOnUse">
<stop offset="0.0001" stop-color="white"/>
<stop offset="0.0002" stop-color="white"/>
<stop offset="1" stop-color="#03ACF2"/>
</linearGradient>
</defs>
</svg>
