<svg width="746" height="482" viewBox="0 0 746 482" fill="none" xmlns="http://www.w3.org/2000/svg">
<g clip-path="url(#clip0_678_1730)">
<path d="M740.588 432.986C734.188 451.496 717.528 467.656 693.318 481.426H44.4881C23.2481 468.1 9.2001 452.516 4.7001 434.656C-8.4599 382.506 2.3201 274.806 85.2401 231.346C215.51 163.076 164.56 14.5857 377.01 0.685684C589.46 -13.2143 544.37 188.336 644.36 258.336C726.358 315.746 760.548 375.316 740.588 432.986Z" fill="#262626"/>
<path d="M428.178 481.426H274.258L274.408 479.786L328.858 476.056L359.638 473.936L426.328 469.366L428.178 481.426Z" fill="#DEE8F5"/>
<path opacity="0.07" d="M428.178 481.426H274.258L274.408 479.786L328.858 476.056L359.638 473.936L426.328 469.366L428.178 481.426Z" fill="#0F1011"/>
<path d="M447.889 481.426H268.979C269.199 480.216 269.429 479.016 269.659 477.816L270.279 477.996L272.069 465.726L329.159 462.206L359.479 460.336L447.119 454.926L447.889 481.426Z" fill="#262626"/>
<path d="M376.146 177.92C376.123 177.506 376.123 177.092 376.123 176.677C376.123 172.49 376.285 167.934 376.698 162.964L371.5 162L339.955 156.156C340.577 164.327 340.446 172.537 339.564 180.683C339.472 181.603 339.357 182.547 339.218 183.49C339.212 183.576 339.197 183.661 339.173 183.743C338.989 184.986 338.782 186.229 338.552 187.471C338.414 188.277 338.253 189.082 338.068 189.886C337.884 190.922 337.632 191.934 337.355 192.946C337.078 193.958 336.803 194.946 336.481 195.938C336.181 196.927 335.859 197.894 335.491 198.838C334.819 200.701 334.004 202.509 333.052 204.245V204.268C331.31 207.674 328.863 210.67 325.873 213.057H383.673C380.057 206.819 376.331 196.028 376.146 177.92Z" fill="#E98862"/>
<path opacity="0.15" d="M333.012 204.299L363.55 180.937L339.565 180.688C338.65 188.76 336.762 197.424 333.012 204.299Z" fill="black"/>
<path d="M397.563 144.181C395.018 158.881 386.997 172.799 374.031 177.547C358.639 183.183 347.239 183.565 329.492 183.565C305.275 183.565 306.076 158.309 305.392 132.858C304.709 107.305 306.741 79.8958 316.312 70.9918C335.417 53.2188 391.488 64.4738 398.312 94.2008C401.84 109.576 399.985 130.19 397.563 144.181Z" fill="#E98862"/>
<path d="M292.416 85.7638C292.416 85.7638 282.498 83.5488 285.216 73.6638C287.016 67.1048 295.416 68.5638 295.416 68.5638C295.416 68.5638 287.459 67.1078 287.459 60.1638C287.459 55.7858 290.822 48.3738 300.968 52.6108C312.868 57.5838 326.448 56.9448 336.768 55.2108C342.789 54.1988 348.661 52.7878 354.501 52.7108L354.532 52.7038V52.7108C361.39 52.5914 368.226 53.506 374.811 55.4238C393.264 60.9438 421.191 77.4898 415.255 115C408.628 156.863 388.984 172.872 380.341 178.008C379.83 178.316 379.255 178.503 378.661 178.557C378.067 178.61 377.468 178.528 376.91 178.316C376.352 178.104 375.85 177.768 375.44 177.334C375.031 176.899 374.726 176.377 374.548 175.808C372.097 167.962 367.869 148.221 369.055 107.514C312.334 104.732 296.015 103.888 296.015 103.888C296.015 103.888 282.66 104.388 282.66 94.6338C282.66 84.8798 292.416 85.7638 292.416 85.7638Z" fill="#0F1011"/>
<path d="M339.999 132.857C341.84 132.857 343.332 131.365 343.332 129.524C343.332 127.684 341.84 126.191 339.999 126.191C338.158 126.191 336.666 127.684 336.666 129.524C336.666 131.365 338.158 132.857 339.999 132.857Z" fill="#0F1011"/>
<path d="M313.697 130.7C315.538 130.7 317.03 129.208 317.03 127.367C317.03 125.526 315.538 124.034 313.697 124.034C311.856 124.034 310.364 125.526 310.364 127.367C310.364 129.208 311.856 130.7 313.697 130.7Z" fill="#0F1011"/>
<path d="M307.919 120.263H307.94L316.772 120.153C317.187 120.15 317.584 119.982 317.876 119.687C318.168 119.391 318.33 118.992 318.328 118.577C318.325 118.161 318.158 117.764 317.862 117.472C317.567 117.18 317.167 117.018 316.752 117.021H316.732L307.899 117.131C307.693 117.132 307.49 117.174 307.3 117.254C307.111 117.333 306.939 117.45 306.794 117.596C306.503 117.892 306.34 118.291 306.343 118.707C306.345 119.122 306.513 119.519 306.809 119.811C307.104 120.103 307.503 120.265 307.919 120.263Z" fill="#0F1011"/>
<path d="M347.2 123.483C347.583 123.483 347.953 123.342 348.24 123.087C348.527 122.832 348.71 122.481 348.754 122.1C348.799 121.719 348.703 121.335 348.483 121.021C348.264 120.706 347.937 120.483 347.564 120.394L338.857 118.294C338.454 118.2 338.03 118.269 337.678 118.486C337.326 118.703 337.074 119.051 336.977 119.453C336.88 119.856 336.947 120.28 337.161 120.634C337.376 120.987 337.722 121.241 338.124 121.341L346.831 123.441C346.952 123.469 347.076 123.483 347.2 123.483Z" fill="#0F1011"/>
<path d="M357.342 137.683C357.036 141.419 358.226 145.124 360.651 147.982C363.076 150.84 366.537 152.618 370.273 152.924C374.009 153.231 377.714 152.04 380.572 149.615C383.43 147.19 385.208 143.729 385.514 139.993C386.152 132.213 380.385 125.006 372.583 124.751C362.51 124.423 357.98 129.9 357.342 137.683Z" fill="#E98862"/>
<g opacity="0.15">
<path d="M325.2 148.016C325.476 148.017 325.743 147.918 325.952 147.739C326.161 147.559 326.299 147.31 326.34 147.037C326.381 146.764 326.322 146.486 326.175 146.253C326.028 146.019 325.802 145.847 325.538 145.766L318.757 143.684L323.5 133.123C323.625 132.845 323.635 132.528 323.526 132.243C323.418 131.957 323.2 131.726 322.922 131.601C322.643 131.476 322.327 131.467 322.041 131.575C321.756 131.683 321.525 131.901 321.4 132.179L316.123 143.929C316.056 144.078 316.021 144.239 316.021 144.403C316.022 144.566 316.057 144.727 316.124 144.876C316.191 145.025 316.29 145.157 316.412 145.265C316.535 145.373 316.679 145.453 316.835 145.501L324.861 147.966C324.971 148 325.085 148.017 325.2 148.016Z" fill="black"/>
</g>
<path d="M338.456 155.78C338.456 155.78 326.15 157.08 317.524 154.064C317.524 154.064 317.592 162.164 327.331 162.964C337.07 163.764 338.456 155.78 338.456 155.78Z" fill="#F8FCFF"/>
<path d="M444.289 416.346C448.419 439.366 454.279 462.636 458.099 481.426H254.769C257.559 461.286 262.509 435.916 265.339 407.226C266.878 392.146 267.582 376.993 267.449 361.836C267.259 344.736 264.709 325.986 262.549 307.636C256.629 257.466 253.619 210.256 309.509 207.846C309.659 207.836 309.819 207.836 309.989 207.826H310.001L310.731 207.796C312.041 207.756 313.761 207.726 315.831 207.696C315.874 207.691 315.917 207.691 315.961 207.696C316.071 207.686 316.171 207.686 316.281 207.686C316.421 210.656 320.841 212.926 327.561 214.496C327.601 214.506 327.651 214.516 327.701 214.526C341.971 217.826 366.411 217.986 382.111 214.976C382.261 214.956 382.401 214.926 382.551 214.896C387.501 213.916 391.551 212.616 394.071 210.996C394.508 210.719 394.923 210.408 395.311 210.066C396.146 209.393 396.71 208.441 396.901 207.386C397.571 207.386 398.231 207.396 398.891 207.406C400.761 207.446 402.601 207.526 404.401 207.666C423.121 209.026 438.401 215.406 447.701 224.706C472.611 249.616 459.381 286.596 448.681 322.976C445.071 335.196 441.761 347.346 440.281 358.956V358.966C440.001 361.126 439.791 363.266 439.651 365.386C439.531 367.276 439.461 369.156 439.461 371.016C439.459 385 441.469 400.616 444.289 416.346Z" fill="#367CFF"/>
<path d="M315.852 206.053C316.452 218.708 323.33 237.322 344.567 238.725C372.867 240.589 394.817 218.662 396.474 205.754H388.401C378.192 205.754 332.317 205.876 323.366 205.961C320.545 205.989 318.019 206.019 315.852 206.053Z" fill="#E98862"/>
<path d="M455.818 417.586C457.818 437.336 459.958 458.936 462.178 481.426H359.758C359.708 478.915 359.678 476.416 359.638 473.936C359.578 469.356 359.525 464.822 359.478 460.336C359.288 441.806 359.278 424.026 359.538 407.256C359.608 402.389 359.701 397.609 359.818 392.916C359.878 390.756 359.938 388.616 359.998 386.496C359.998 386.396 359.998 386.286 360.008 386.186C360.318 375.976 360.755 366.242 361.318 356.986C361.651 351.746 362.025 346.679 362.438 341.786C362.638 339.386 362.855 337.032 363.088 334.726C366.188 303.306 374.728 255.886 379.998 228.156C380.978 222.966 381.848 218.466 382.548 214.896C382.678 214.256 382.798 213.636 382.908 213.056C382.978 212.706 383.048 212.376 383.108 212.056V212.046C383.868 208.196 384.318 205.946 384.358 205.766V205.756C384.358 205.756 388.248 205.486 394.218 205.526C395.668 205.526 397.248 205.556 398.928 205.616C400.578 205.666 402.318 205.746 404.138 205.856C414.358 206.506 426.798 208.236 437.038 212.486C460.758 222.336 469.498 277.616 478.478 314.526C478.498 314.596 478.508 314.666 478.528 314.736L454.078 400.366C454.638 405.916 455.218 411.656 455.818 417.586Z" fill="white"/>
<path d="M384.379 205.607C384.379 205.607 359.9 299.82 359.9 396.756L402.241 261.256L388.621 244.149L407.715 230.649L404.126 205.819C397.924 204.557 384.379 205.607 384.379 205.607Z" fill="#F3F5FD"/>
<path d="M331.328 336.126C331.328 338.946 331.308 342.426 331.278 346.496C331.208 353.016 331.098 361.056 330.948 370.346C330.848 377.106 330.718 384.516 330.568 392.506V392.516C330.538 394.106 330.508 395.716 330.478 397.356C330.448 398.896 330.418 400.466 330.388 402.046C330.048 420.036 329.628 440.426 329.158 462.206C329.058 466.766 328.958 471.383 328.858 476.056C328.818 477.836 328.778 479.626 328.738 481.426H243.6C246.77 453.186 249.76 429.176 252.41 409.176C257.57 370.146 261.42 346.376 262.67 336.126L233.09 320.096L232.26 319.646C232.26 319.646 258.33 224.366 280.15 212.486C289.67 207.306 302.71 206.566 310.49 206.216H310.52C310.6 206.216 310.69 206.206 310.77 206.206C320.26 205.776 327.05 205.756 327.05 205.756C327.05 205.756 327.05 205.816 327.06 205.936C327.1 206.526 327.22 208.536 327.41 211.736V211.746C327.43 212.156 327.46 212.596 327.49 213.056C327.52 213.516 327.54 213.996 327.56 214.496C327.83 219.126 328.16 225.436 328.54 233.006V233.016C328.79 238.226 329.05 244.036 329.32 250.306C329.46 253.726 329.61 257.296 329.74 260.976C329.75 260.986 329.75 260.986 329.74 260.996C330.12 270.846 330.47 281.516 330.75 292.596V292.606C330.81 295.116 330.87 297.646 330.93 300.196C331.178 312 331.328 324.136 331.328 336.126Z" fill="white"/>
<path d="M327.064 205.607C327.064 205.607 335.164 310.774 330.687 393.113L304.958 261.256L317.3 245.95L301.823 234.25L310.536 206.071L327.064 205.607Z" fill="#F3F5FD"/>
<path d="M341.978 401.85C341.978 401.85 292.152 406.395 273.129 377.841C272.645 377.114 272.392 376.257 272.403 375.383C272.413 374.509 272.687 373.659 273.189 372.943C273.691 372.227 274.397 371.68 275.215 371.372C276.032 371.064 276.924 371.01 277.773 371.216C295.215 375.486 331.468 382.873 330.838 370.316L358.463 378.827L341.978 401.85Z" fill="#E98862"/>
<path d="M476.438 419.646C480.315 419.645 484.14 418.746 487.611 417.018C491.082 415.29 494.106 412.781 496.444 409.688C498.782 406.594 500.372 403.001 501.087 399.19C501.803 395.379 501.625 391.454 500.569 387.724L476.713 307.052L431.465 327.852L442.175 365.659L340.575 354.759L335.225 404.641L473.759 419.5C474.648 419.597 475.543 419.645 476.438 419.646Z" fill="white"/>
<path d="M235.467 411.456C236.724 411.456 237.98 411.361 239.223 411.173L395.228 387.56L387.721 337.96L273.632 355.224L287.716 316.884L238.463 298.793L211.922 377.723C210.53 381.514 210.074 385.585 210.592 389.59C211.111 393.595 212.589 397.416 214.9 400.728C217.212 404.04 220.288 406.744 223.869 408.612C227.45 410.48 231.429 411.455 235.467 411.456Z" fill="white"/>
<path d="M388.821 344.241C388.821 344.241 415.183 342.376 425.386 363.715L390.638 360.564L388.821 344.241Z" fill="#E98862"/>
<path d="M397.527 263.968L398.94 205.273L394.227 205.2L392.595 263.728L397.527 263.968Z" fill="#0CBC8B"/>
<path d="M309.725 243.43L310.773 206.203L315.851 206.053L315.306 243.488C321.144 244.219 326.516 247.055 330.413 251.464C334.31 255.873 336.465 261.551 336.475 267.436V296.33H330.9V267.436C330.918 264.985 330.451 262.554 329.525 260.285C328.6 258.015 327.234 255.951 325.507 254.212C323.781 252.472 321.727 251.092 319.464 250.15C317.201 249.207 314.774 248.722 312.323 248.722C309.872 248.722 307.446 249.207 305.183 250.15C302.92 251.092 300.866 252.472 299.139 254.212C297.413 255.951 296.047 258.015 295.122 260.285C294.196 262.554 293.729 264.985 293.747 267.436V296.33H288.173V267.436C288.181 261.483 290.384 255.743 294.36 251.313C298.337 246.884 303.808 244.077 309.725 243.43Z" fill="#0CBC8B"/>
<path d="M395.228 278.935C401.195 278.935 406.032 274.098 406.032 268.131C406.032 262.164 401.195 257.327 395.228 257.327C389.261 257.327 384.424 262.164 384.424 268.131C384.424 274.098 389.261 278.935 395.228 278.935Z" fill="#0CBC8B"/>
<path d="M333.744 301.114C336.386 301.114 338.528 298.972 338.528 296.33C338.528 293.688 336.386 291.546 333.744 291.546C331.102 291.546 328.96 293.688 328.96 296.33C328.96 298.972 331.102 301.114 333.744 301.114Z" fill="#0CBC8B"/>
<path d="M291.12 301.114C293.762 301.114 295.904 298.972 295.904 296.33C295.904 293.688 293.762 291.546 291.12 291.546C288.478 291.546 286.336 293.688 286.336 296.33C286.336 298.972 288.478 301.114 291.12 301.114Z" fill="#0CBC8B"/>
<path d="M136.818 233.365C170.472 233.365 197.755 206.083 197.755 172.428C197.755 138.774 170.472 111.491 136.818 111.491C103.163 111.491 75.8809 138.774 75.8809 172.428C75.8809 206.083 103.163 233.365 136.818 233.365Z" fill="#F3F5FD"/>
<path d="M641.99 432.985C675.644 432.985 702.927 405.703 702.927 372.048C702.927 338.394 675.644 311.111 641.99 311.111C608.335 311.111 581.053 338.394 581.053 372.048C581.053 405.703 608.335 432.985 641.99 432.985Z" fill="#F3F5FD"/>
<path d="M589.741 203.917C623.395 203.917 650.678 176.635 650.678 142.98C650.678 109.325 623.395 82.043 589.741 82.043C556.086 82.043 528.804 109.325 528.804 142.98C528.804 176.635 556.086 203.917 589.741 203.917Z" fill="#F3F5FD"/>
<path d="M75.8811 418.924C104.607 418.924 127.893 395.638 127.893 366.912C127.893 338.187 104.607 314.9 75.8811 314.9C47.1557 314.9 23.8691 338.187 23.8691 366.912C23.8691 395.638 47.1557 418.924 75.8811 418.924Z" fill="#F3F5FD"/>
<path d="M144.013 142.98H129.624V201.875H144.013V142.98Z" fill="#FD5D76"/>
<path d="M166.266 179.623V165.234H107.371V179.623H166.266Z" fill="#FD5D76"/>
<path d="M81.4706 335.288V341.228H48.0186V335.288C48.0188 334.558 48.3089 333.858 48.8252 333.342C49.3414 332.826 50.0415 332.535 50.7716 332.535H78.7166C79.4468 332.535 80.1471 332.825 80.6636 333.341C81.18 333.858 81.4703 334.558 81.4706 335.288Z" fill="#262626"/>
<path d="M81.4706 341.229V398.158C81.4706 398.988 81.1407 399.784 80.5535 400.371C79.9663 400.959 79.1699 401.289 78.3396 401.289H51.1496C50.3192 401.289 49.5228 400.959 48.9356 400.371C48.3484 399.784 48.0186 398.988 48.0186 398.158V341.229H81.4706Z" fill="#0CBC8B"/>
<path d="M75.8814 355.848H53.6084V388.249H75.8814V355.848Z" fill="#FAFAFA"/>
<path d="M71.6562 366.427H57.8322C57.5545 366.427 57.2882 366.317 57.0918 366.12C56.8955 365.924 56.7852 365.658 56.7852 365.38C56.7852 365.102 56.8955 364.836 57.0918 364.64C57.2882 364.443 57.5545 364.333 57.8322 364.333H71.6562C71.9338 364.333 72.2001 364.443 72.3965 364.64C72.5928 364.836 72.7032 365.102 72.7032 365.38C72.7032 365.658 72.5928 365.924 72.3965 366.12C72.2001 366.317 71.9338 366.427 71.6562 366.427Z" fill="#D7E8F4"/>
<path d="M71.6563 370.872H57.8323C57.6921 370.876 57.5525 370.852 57.4218 370.802C57.291 370.751 57.1718 370.675 57.0711 370.577C56.9704 370.479 56.8904 370.363 56.8358 370.233C56.7811 370.104 56.7529 369.966 56.7529 369.825C56.7529 369.685 56.7811 369.546 56.8358 369.417C56.8904 369.288 56.9704 369.171 57.0711 369.074C57.1718 368.976 57.291 368.9 57.4218 368.849C57.5525 368.798 57.6921 368.774 57.8323 368.779H71.6563C71.7964 368.774 71.936 368.798 72.0668 368.849C72.1975 368.9 72.3168 368.976 72.4174 369.074C72.5181 369.171 72.5982 369.288 72.6528 369.417C72.7075 369.546 72.7356 369.685 72.7356 369.825C72.7356 369.966 72.7075 370.104 72.6528 370.233C72.5982 370.363 72.5181 370.479 72.4174 370.577C72.3168 370.675 72.1975 370.751 72.0668 370.802C71.936 370.852 71.7964 370.876 71.6563 370.872Z" fill="#D7E8F4"/>
<path d="M71.6562 375.319H57.8322C57.5545 375.319 57.2882 375.208 57.0918 375.012C56.8955 374.816 56.7852 374.549 56.7852 374.272C56.7852 373.994 56.8955 373.728 57.0918 373.531C57.2882 373.335 57.5545 373.225 57.8322 373.225H71.6562C71.9338 373.225 72.2001 373.335 72.3965 373.531C72.5928 373.728 72.7032 373.994 72.7032 374.272C72.7032 374.549 72.5928 374.816 72.3965 375.012C72.2001 375.208 71.9338 375.319 71.6562 375.319Z" fill="#D7E8F4"/>
<path d="M68.7935 379.763H60.6995C60.5593 379.768 60.4197 379.744 60.289 379.693C60.1582 379.643 60.039 379.566 59.9383 379.469C59.8376 379.371 59.7576 379.254 59.7029 379.125C59.6483 378.996 59.6201 378.857 59.6201 378.717C59.6201 378.577 59.6483 378.438 59.7029 378.309C59.7576 378.18 59.8376 378.063 59.9383 377.965C60.039 377.868 60.1582 377.791 60.289 377.741C60.4197 377.69 60.5593 377.666 60.6995 377.67H68.7995C68.9396 377.666 69.0792 377.69 69.21 377.741C69.3407 377.791 69.46 377.868 69.5606 377.965C69.6613 378.063 69.7413 378.18 69.796 378.309C69.8507 378.438 69.8788 378.577 69.8788 378.717C69.8788 378.857 69.8507 378.996 69.796 379.125C69.7413 379.254 69.6613 379.371 69.5606 379.469C69.46 379.566 69.3407 379.643 69.21 379.693C69.0792 379.744 68.9396 379.768 68.7995 379.763H68.7935Z" fill="#D7E8F4"/>
<path d="M111.143 396.994V366.927C111.143 365.445 109.941 364.243 108.459 364.243H66.9206C65.4382 364.243 64.2366 365.445 64.2366 366.927V396.994C64.2366 398.476 65.4382 399.678 66.9206 399.678H108.459C109.941 399.678 111.143 398.476 111.143 396.994Z" fill="#262626"/>
<path d="M105.026 382.488C105.301 382.488 105.524 382.265 105.524 381.991C105.524 381.716 105.301 381.493 105.026 381.493H70.3514C70.0764 381.493 69.8534 381.716 69.8534 381.991C69.8534 382.265 70.0764 382.488 70.3514 382.488H105.026Z" fill="#ABCBFF"/>
<path d="M73.2324 376.177V369.969C73.2324 369.036 72.4762 368.28 71.5434 368.28H71.5424C70.6096 368.28 69.8534 369.036 69.8534 369.969V376.177C69.8534 377.11 70.6096 377.866 71.5424 377.866H71.5434C72.4762 377.866 73.2324 377.11 73.2324 376.177Z" fill="#FAFAFA"/>
<path d="M78.0025 368.28H78.0015C77.0687 368.28 76.3125 369.036 76.3125 369.969V376.177C76.3125 377.11 77.0687 377.866 78.0015 377.866H78.0025C78.9353 377.866 79.6915 377.11 79.6915 376.177V369.969C79.6915 369.036 78.9353 368.28 78.0025 368.28Z" fill="#FAFAFA"/>
<path d="M84.4605 368.28H84.4595C83.5267 368.28 82.7705 369.036 82.7705 369.969V376.177C82.7705 377.11 83.5267 377.866 84.4595 377.866H84.4605C85.3933 377.866 86.1495 377.11 86.1495 376.177V369.969C86.1495 369.036 85.3933 368.28 84.4605 368.28Z" fill="#FAFAFA"/>
<path d="M90.9195 368.28H90.9185C89.9857 368.28 89.2295 369.036 89.2295 369.969V376.177C89.2295 377.11 89.9857 377.866 90.9185 377.866H90.9195C91.8523 377.866 92.6085 377.11 92.6085 376.177V369.969C92.6085 369.036 91.8523 368.28 90.9195 368.28Z" fill="#FAFAFA"/>
<path d="M97.3775 368.28H97.3765C96.4437 368.28 95.6875 369.036 95.6875 369.969V376.177C95.6875 377.11 96.4437 377.866 97.3765 377.866H97.3775C98.3103 377.866 99.0665 377.11 99.0665 376.177V369.969C99.0665 369.036 98.3103 368.28 97.3775 368.28Z" fill="#FAFAFA"/>
<path d="M105.525 376.177V369.969C105.525 369.036 104.769 368.28 103.836 368.28H103.835C102.903 368.28 102.146 369.036 102.146 369.969V376.177C102.146 377.11 102.903 377.866 103.835 377.866H103.836C104.769 377.866 105.525 377.11 105.525 376.177Z" fill="#FAFAFA"/>
<path d="M73.2324 393.955V387.747C73.2324 386.814 72.4762 386.058 71.5434 386.058H71.5424C70.6096 386.058 69.8534 386.814 69.8534 387.747V393.955C69.8534 394.887 70.6096 395.644 71.5424 395.644H71.5434C72.4762 395.644 73.2324 394.887 73.2324 393.955Z" fill="#FAFAFA"/>
<path d="M78.0025 386.057H78.0015C77.0687 386.057 76.3125 386.813 76.3125 387.746V393.954C76.3125 394.886 77.0687 395.643 78.0015 395.643H78.0025C78.9353 395.643 79.6915 394.886 79.6915 393.954V387.746C79.6915 386.813 78.9353 386.057 78.0025 386.057Z" fill="#FAFAFA"/>
<path d="M84.4605 386.057H84.4595C83.5267 386.057 82.7705 386.813 82.7705 387.746V393.954C82.7705 394.886 83.5267 395.643 84.4595 395.643H84.4605C85.3933 395.643 86.1495 394.886 86.1495 393.954V387.746C86.1495 386.813 85.3933 386.057 84.4605 386.057Z" fill="#FAFAFA"/>
<path d="M90.9195 386.057H90.9185C89.9857 386.057 89.2295 386.813 89.2295 387.746V393.954C89.2295 394.886 89.9857 395.643 90.9185 395.643H90.9195C91.8523 395.643 92.6085 394.886 92.6085 393.954V387.746C92.6085 386.813 91.8523 386.057 90.9195 386.057Z" fill="#FAFAFA"/>
<path d="M97.3775 386.057H97.3765C96.4437 386.057 95.6875 386.813 95.6875 387.746V393.954C95.6875 394.886 96.4437 395.643 97.3765 395.643H97.3775C98.3103 395.643 99.0665 394.886 99.0665 393.954V387.746C99.0665 386.813 98.3103 386.057 97.3775 386.057Z" fill="#FAFAFA"/>
<path d="M105.524 393.954V387.746C105.524 386.813 104.768 386.057 103.835 386.057H103.834C102.902 386.057 102.145 386.813 102.145 387.746V393.954C102.145 394.886 102.902 395.643 103.834 395.643H103.835C104.768 395.643 105.524 394.886 105.524 393.954Z" fill="#FAFAFA"/>
<path d="M580.193 108.081L579.98 109.932L571.491 108.955C570.591 108.851 569.687 109.109 568.978 109.672C568.269 110.234 567.812 111.056 567.708 111.955L560.724 172.662C560.62 173.561 560.878 174.465 561.44 175.175C562.003 175.884 562.824 176.341 563.724 176.445L609.046 181.659C609.491 181.71 609.942 181.674 610.373 181.551C610.804 181.428 611.207 181.221 611.558 180.942C611.91 180.664 612.203 180.319 612.421 179.927C612.639 179.535 612.777 179.104 612.829 178.659L619.813 117.952C619.916 117.053 619.658 116.149 619.096 115.439C618.533 114.73 617.712 114.273 616.813 114.169L608.323 113.192L608.536 111.341C608.572 111.027 608.547 110.709 608.46 110.405C608.374 110.101 608.228 109.817 608.032 109.57C607.835 109.322 607.592 109.116 607.316 108.963C607.039 108.81 606.736 108.712 606.422 108.677L582.858 105.966C582.224 105.893 581.587 106.075 581.087 106.472C580.587 106.868 580.266 107.447 580.193 108.081Z" fill="#262626"/>
<path d="M570.735 113.282L563.973 172.063C563.876 172.906 564.481 173.668 565.324 173.766L608.101 178.687C608.944 178.784 609.706 178.179 609.803 177.336L616.566 118.554C616.663 117.711 616.058 116.949 615.215 116.852L572.438 111.93C571.595 111.833 570.832 112.438 570.735 113.282Z" fill="#FAFAFA"/>
<path d="M583.008 110.384L582.381 115.835C582.315 116.408 582.727 116.927 583.3 116.992L603.487 119.315C604.06 119.381 604.578 118.97 604.644 118.396L605.271 112.945C605.337 112.372 604.926 111.854 604.353 111.788L584.166 109.465C583.593 109.399 583.074 109.811 583.008 110.384Z" fill="#0CBC8B"/>
<path d="M580.669 160.34C580.288 160.296 579.944 160.569 579.901 160.95C579.857 161.33 580.13 161.674 580.511 161.718L605.238 164.563C605.618 164.607 605.963 164.334 606.006 163.953C606.05 163.573 605.777 163.229 605.396 163.185L580.669 160.34Z" fill="#9EBCEA"/>
<path d="M587.977 165.239C587.596 165.196 587.252 165.469 587.208 165.849C587.164 166.23 587.438 166.574 587.818 166.617L604.78 168.569C605.161 168.613 605.505 168.34 605.549 167.959C605.593 167.579 605.32 167.235 604.939 167.191L587.977 165.239Z" fill="#9EBCEA"/>
<path d="M573.254 133.37C572.873 133.327 572.529 133.6 572.486 133.98C572.442 134.361 572.715 134.704 573.096 134.748L596.672 137.461C597.053 137.505 597.397 137.232 597.441 136.851C597.485 136.471 597.211 136.127 596.831 136.083L573.254 133.37Z" fill="#9EBCEA"/>
<path d="M572.793 137.375C572.413 137.331 572.068 137.604 572.025 137.985C571.981 138.365 572.254 138.709 572.635 138.753L589.313 140.672C589.694 140.716 590.038 140.443 590.081 140.062C590.125 139.682 589.852 139.338 589.471 139.294L572.793 137.375Z" fill="#9EBCEA"/>
<path d="M572.332 141.381C571.952 141.337 571.607 141.61 571.564 141.991C571.52 142.371 571.793 142.715 572.174 142.759L598.05 145.736C598.431 145.78 598.775 145.507 598.819 145.126C598.863 144.746 598.589 144.402 598.209 144.358L572.332 141.381Z" fill="#9EBCEA"/>
<path d="M571.873 145.387C571.493 145.343 571.148 145.616 571.105 145.997C571.061 146.377 571.334 146.721 571.715 146.765L591.842 149.08C592.223 149.124 592.567 148.851 592.611 148.471C592.655 148.09 592.381 147.746 592.001 147.703L571.873 145.387Z" fill="#9EBCEA"/>
<path d="M578.193 129.1L579.217 127.359L578.159 127.237L577.459 128.447C577.414 128.332 576.339 125.66 576.339 125.66C576.617 125.579 576.865 125.418 577.053 125.198C577.256 124.945 577.377 124.636 577.401 124.311C577.44 124.054 577.417 123.792 577.333 123.545C577.259 123.341 577.135 123.159 576.972 123.014C576.801 122.868 576.602 122.756 576.388 122.685C576.147 122.605 575.897 122.55 575.644 122.521L573.83 122.312L573.251 127.346L574.385 127.476L574.594 125.662L575.219 125.734L576.499 128.908L575.442 130.807L576.615 130.942L577.315 129.643C577.365 129.758 577.741 131.074 577.741 131.074L578.841 131.202L578.193 129.1ZM575.283 124.826L574.696 124.759L574.859 123.346L575.445 123.414C575.684 123.427 575.914 123.505 576.112 123.639C576.187 123.706 576.243 123.792 576.274 123.888C576.305 123.983 576.31 124.085 576.288 124.183C576.283 124.29 576.253 124.393 576.201 124.485C576.149 124.578 576.076 124.657 575.988 124.716C575.772 124.832 575.524 124.871 575.283 124.826Z" fill="#9EBCEA"/>
<path d="M605.521 137.083C605.14 137.039 604.796 137.312 604.752 137.693C604.708 138.073 604.982 138.417 605.362 138.461L609.394 138.925C609.774 138.969 610.119 138.696 610.162 138.315C610.206 137.935 609.933 137.591 609.552 137.547L605.521 137.083Z" fill="#9EBCEA"/>
<path d="M605.058 141.087C604.677 141.043 604.333 141.316 604.289 141.697C604.245 142.077 604.519 142.421 604.899 142.465L608.931 142.929C609.312 142.973 609.656 142.7 609.7 142.319C609.743 141.939 609.47 141.595 609.089 141.551L605.058 141.087Z" fill="#9EBCEA"/>
<path d="M604.598 145.093C604.217 145.049 603.873 145.322 603.829 145.703C603.785 146.083 604.059 146.427 604.439 146.471L608.471 146.935C608.852 146.979 609.196 146.706 609.24 146.325C609.283 145.945 609.01 145.601 608.629 145.557L604.598 145.093Z" fill="#9EBCEA"/>
<path d="M604.138 149.099C603.757 149.055 603.413 149.328 603.369 149.709C603.326 150.089 603.599 150.433 603.979 150.477L608.011 150.941C608.392 150.984 608.736 150.711 608.78 150.331C608.823 149.95 608.55 149.606 608.169 149.563L604.138 149.099Z" fill="#9EBCEA"/>
<path d="M629.5 373.773L625.658 374.414C621.556 374.624 617.518 373.33 614.301 370.775C611.084 368.221 608.91 364.58 608.185 360.537L604.66 340.678L608.491 339.998L612.017 359.857C612.303 361.545 612.92 363.159 613.833 364.606C614.746 366.054 615.936 367.307 617.336 368.292C618.735 369.278 620.315 369.977 621.986 370.348C623.657 370.72 625.384 370.758 627.069 370.458C628.755 370.159 630.364 369.53 631.804 368.605C633.245 367.681 634.488 366.481 635.463 365.074C636.438 363.668 637.124 362.082 637.483 360.408C637.841 358.735 637.865 357.007 637.553 355.324L634.027 335.465L637.858 334.785L641.384 354.644C642.105 358.736 641.291 362.951 639.098 366.48C636.906 370.01 633.488 372.606 629.5 373.773Z" fill="#0F1011"/>
<path d="M606.533 343.685C608.378 343.685 609.873 342.19 609.873 340.345C609.873 338.5 608.378 337.005 606.533 337.005C604.689 337.005 603.193 338.5 603.193 340.345C603.193 342.19 604.689 343.685 606.533 343.685Z" fill="#262626"/>
<path d="M635.83 338.485C637.675 338.485 639.17 336.989 639.17 335.145C639.17 333.3 637.675 331.805 635.83 331.805C633.986 331.805 632.49 333.3 632.49 335.145C632.49 336.989 633.986 338.485 635.83 338.485Z" fill="#262626"/>
<path d="M647.08 415.379C639.521 415.379 631.692 411.138 630.1 403.019L625.074 372.371L629.022 371.725L634.036 402.311C635.357 409.037 642.836 412.153 649.291 411.224L654.083 410.542C655.728 410.308 657.311 409.751 658.741 408.904C660.17 408.058 661.419 406.937 662.414 405.606C663.41 404.276 664.133 402.762 664.542 401.152C664.952 399.541 665.039 397.866 664.799 396.222L662.699 381.78L666.658 381.204L668.758 395.646C669.073 397.811 668.957 400.016 668.418 402.137C667.878 404.257 666.926 406.25 665.615 408.001C664.304 409.753 662.66 411.228 660.778 412.343C658.896 413.458 656.812 414.191 654.646 414.5L649.855 415.182C648.936 415.313 648.009 415.378 647.08 415.379Z" fill="#0F1011"/>
<path d="M664.773 386.355C669.041 386.355 672.501 382.895 672.501 378.627C672.501 374.359 669.041 370.899 664.773 370.899C660.505 370.899 657.045 374.359 657.045 378.627C657.045 382.895 660.505 386.355 664.773 386.355Z" fill="#262626"/>
</g>
<defs>
<clipPath id="clip0_678_1730">
<rect width="746.147" height="481.426" fill="white"/>
</clipPath>
</defs>
</svg>
