<svg width="115" height="74" viewBox="0 0 115 74" fill="none" xmlns="http://www.w3.org/2000/svg">
<path fill-rule="evenodd" clip-rule="evenodd" d="M81.4242 57.2476C77.9588 56.0399 74.2111 55.9629 70.7457 54.7552C69.6932 54.3955 67.614 53.9587 67.1776 52.751C66.7669 51.5691 66.7669 50.1816 66.6899 48.9483C66.6385 47.9719 66.6129 46.9955 66.6129 46.0191C66.6129 45.3767 68.2557 44.0149 68.6151 43.424C70.0013 41.1115 70.1296 38.0024 70.3863 35.3816C72.6196 35.9983 72.9019 31.8615 73.287 30.6024C73.5693 29.7288 75.2892 23.7163 72.6196 24.5385C73.2613 23.408 73.518 22.0205 73.6977 20.7615C74.2111 17.4726 74.4164 13.8754 73.4153 10.6635C71.3361 3.98299 64.9443 0.231603 58.1932 0.0260476C51.3394 -0.205202 44.46 3.08369 41.893 9.73855C40.6609 12.976 40.7635 16.4962 41.1742 19.8879C41.3539 21.4295 41.6106 23.151 42.3807 24.5385C39.8908 23.7934 41.2256 29.0865 41.508 30.0115C41.9187 31.3219 42.278 36.024 44.614 35.3816C44.8193 37.4629 45.0504 39.5955 45.6151 41.6254C46.0001 42.9872 46.7959 44.1434 47.72 45.1969C48.1821 45.7108 48.4131 45.7622 48.3874 46.4302C48.3617 48.4344 48.4131 50.5927 47.8997 52.5455C47.3863 54.4983 43.0995 55.3205 41.3796 55.6802C36.7591 56.6309 32.4979 57.0677 28.6475 59.9455C24.1553 63.2601 21.8193 68.4247 21.8193 74.0004C43.2021 74.0004 64.585 74.0004 85.9678 74.0004C88.3807 74.0004 90.768 74.0004 93.1809 74.0004C93.1809 66.4205 88.6117 59.7399 81.4242 57.2476C84.3249 58.2497 78.5492 56.2455 81.4242 57.2476ZM29.5459 64.6476C30.9834 63.1316 32.8059 61.7955 34.7825 61.0504C37.4778 60.0226 40.5325 60.074 43.3305 59.3545C45.6408 58.7635 48.5158 57.8385 50.3126 56.1684C51.9555 54.6267 52.1352 52.2629 52.2892 50.1302C52.4176 48.3316 52.3919 46.5587 52.3919 44.7601C52.3919 43.501 50.9287 42.7816 50.21 41.7795C49.0548 40.2122 49.0035 37.874 48.7725 35.9983C48.6698 35.176 48.6441 34.1226 47.951 33.5573C47.1809 32.9406 46.6162 32.6066 46.2312 31.6302C45.7178 30.2941 45.5381 28.8552 45.1274 27.4677C44.8707 26.5684 45.7691 25.7205 46.1285 24.9754C46.7959 23.6135 45.6408 21.5066 45.4097 20.0934C44.691 15.8795 44.7167 11.2802 47.7457 7.93994C53.8294 1.20799 67.768 3.34063 69.7702 12.7962C70.3863 15.751 70.0013 19.1941 69.1798 22.0719C68.8205 23.3052 68.4097 24.2045 69.1285 25.4122C70.2066 27.1594 69.7446 28.2899 69.2312 30.2427C68.8204 31.8615 68.3071 32.5809 67.0749 33.583C66.0481 34.4052 66.2021 36.4608 66.0225 37.6427C65.8171 39.0816 65.6888 40.5976 64.816 41.8052C64.4823 42.2677 62.6597 43.7066 62.6597 44.1948C62.6597 47.0212 62.5314 49.899 63.0191 52.6997C63.6865 56.6823 67.0236 57.633 70.3606 58.9948C73.749 60.3052 77.6765 59.817 80.9622 61.4358C84.3506 63.1059 87.6106 66.1636 88.5861 69.9406C68.23 69.9406 47.874 69.9406 27.518 69.9406C27.1586 69.9406 26.7992 69.9406 26.4399 69.9406C26.9276 67.808 28.1084 66.1892 29.5459 64.6476C28.0314 66.2663 31.9075 62.1552 29.5459 64.6476Z" fill="#03ACF2"/>
<path fill-rule="evenodd" clip-rule="evenodd" d="M28.7757 53.959C30.5725 53.0597 32.5234 52.8541 34.5 52.6486C35.2188 52.5715 35.5525 52.0833 35.0134 51.3895C33.9866 50.0791 30.4442 49.8222 28.9554 49.2312C28.0312 48.8715 27.7746 48.5375 27.6975 47.5097C27.6719 47.0472 27.4152 44.9916 27.7746 44.6576C28.0312 44.4007 29.6484 44.5034 30.0078 44.452C31.471 44.2722 32.9598 43.9638 34.346 43.4243C34.9364 43.193 35.5011 42.9104 36.0145 42.5507C36.6306 42.0882 35.5525 40.9576 35.2701 40.3409C34.3973 38.4138 34.0123 36.3069 33.8839 34.2C33.6272 30.0632 34.269 25.9007 33.4989 21.7895C32.3438 15.4944 27.4922 12.334 21.3058 12.334C17.481 12.334 13.7076 13.6444 11.577 16.9847C9.2154 20.659 9.34375 25.2326 9.4721 29.4208C9.54911 31.8104 9.65178 34.2257 9.31808 36.6152C9.16406 37.643 8.93304 38.6451 8.57366 39.6215C8.2913 40.3666 6.85379 42.2166 7.41853 42.602C9.54911 44.118 13.1429 44.6319 15.7098 44.4263C15.7868 45.6854 16.0179 47.3041 15.5558 48.4861C14.8371 50.3361 9.4721 50.8243 7.85491 51.3638C3.33705 52.8798 0 56.6569 0 61.6673C4.69754 61.6673 9.36942 61.6673 14.067 61.6673C16.1719 61.6673 18.2768 61.6673 20.4074 61.6673C20.7411 61.6673 22.0246 59.2777 22.3839 58.8923C24.1808 56.8882 26.3884 55.1666 28.7757 53.959C25.0279 55.8604 31.0859 52.8027 28.7757 53.959ZM18.1741 57.5562C13.99 57.5562 9.8058 57.5562 5.62165 57.5562C7.4442 54.5243 12.0134 54.7298 15.0167 53.6507C17.7891 52.6486 19.5603 50.9527 19.8426 47.9979C19.8683 47.6638 19.894 40.4951 19.6116 40.4951C17.3783 40.418 15.0424 40.4694 12.8092 40.1354C14.5804 34.4055 12.8862 28.4958 13.8359 22.7145C14.529 18.5263 17.1987 16.2138 21.4598 16.2138C25.5413 16.2138 28.5703 18.1152 29.4431 22.2263C30.6752 28.1875 28.9297 34.277 30.8292 40.1868C29.4174 40.5465 27.9286 40.5979 26.4654 40.6493C25.7467 40.675 25.0022 40.7007 24.2835 40.7263C23.8214 40.752 23.9754 41.5486 23.9498 41.934C23.6931 44.7347 22.6663 49.1541 24.8996 51.4152C22.4353 52.9569 19.7656 55.0895 18.1741 57.5562Z" fill="#03ACF2"/>
<path fill-rule="evenodd" clip-rule="evenodd" d="M94.4132 61.6669C101.267 61.6669 108.146 61.6669 115 61.6669C115 56.6565 111.638 52.8537 107.12 51.3635C105.04 50.6954 101.036 50.4898 99.5472 48.6912C98.8027 47.7919 99.2135 45.5051 99.2905 44.426C100.42 44.5287 101.652 44.3489 102.807 44.1947C103.86 44.0405 104.886 43.835 105.888 43.4753C106.35 43.2954 106.812 43.1155 107.248 42.8586C108.249 42.2676 107.787 42.1648 107.274 41.2912C104.476 36.5892 105.734 30.628 105.605 25.4635C105.503 21.1725 104.373 16.4704 100.471 14.0551C96.9545 11.8711 91.7436 11.794 87.9702 13.3357C77.0862 17.7037 83.5036 32.144 79.7815 40.4176C79.1398 41.8051 78.2157 42.2933 79.8329 43.1155C80.7313 43.578 81.7068 43.8864 82.6822 44.1176C84.171 44.4773 85.7112 44.6829 87.2514 44.7343C87.5081 44.7343 87.3284 47.9718 87.2514 48.3058C86.969 49.5648 84.2224 49.9246 83.1956 50.2072C82.1431 50.4898 80.3976 50.5669 79.8842 51.6718C79.1141 53.3162 82.4255 52.9051 83.2469 53.0593C85.8909 53.5475 88.2268 55.0121 90.2804 56.6822C91.7949 57.9155 93.8485 59.6628 94.4132 61.6669ZM94.3106 54.7037C93.0014 53.4961 91.6409 52.3142 90.1264 51.3635C92.3853 49.1023 91.3329 44.7086 91.0762 41.8822C90.9222 40.2635 90.5628 40.6746 88.9456 40.6232C87.4054 40.5718 85.6599 40.6489 84.1967 40.1607C86.0449 34.4308 84.5304 28.5468 85.4802 22.7142C86.1989 18.3204 89.2023 16.1621 93.5661 16.1621C97.5193 16.1621 100.24 18.1405 101.062 22.0718C102.319 28.0072 100.394 34.1482 102.217 40.0579C100.035 40.3919 97.776 40.3148 95.5684 40.3919C95.0293 40.4176 95.0806 46.8412 95.132 47.4065C95.3117 50.4128 96.6978 52.2371 99.5472 53.3933C102.653 54.6523 107.505 54.3183 109.404 57.4787C107.017 57.4787 104.655 57.4787 102.268 57.4787C100.831 57.4787 99.3931 57.4787 97.93 57.4787C96.1074 57.5044 95.6454 55.9114 94.3106 54.7037C95.3373 55.6287 93.0271 53.5218 94.3106 54.7037Z" fill="#03ACF2"/>
</svg>
