<svg width="604" height="459" viewBox="0 0 604 459" fill="none" xmlns="http://www.w3.org/2000/svg">
<g clip-path="url(#clip0_678_1660)">
<path d="M553.905 458.99C560.671 458.99 567.366 457.577 573.587 454.837C579.808 452.097 585.427 448.087 590.103 443.048C594.78 438.009 598.418 432.045 600.798 425.518C603.177 418.99 604.25 412.033 603.95 405.067C602.302 366.645 579.164 310.809 514.039 261.848C444.61 209.654 471.932 40.9049 365.908 18.8364C174.683 -20.9683 209.166 168.651 89.8017 233.131C13.8195 274.175 0.00517196 354.483 0 407.436C0.0123402 421.119 5.29631 434.236 14.6899 443.904C24.0836 453.572 36.8178 458.998 50.0922 458.99H553.905Z" fill="#F3F5FD"/>
<path d="M257.426 0H101.368V120.613H257.426V0Z" fill="#D7E8F4"/>
<path d="M117.49 100.3C116.925 100.297 116.366 100.174 115.848 99.9385C115.331 99.7031 114.866 99.3602 114.483 98.9313C114.1 98.5024 113.807 97.9967 113.622 97.4457C113.437 96.8948 113.364 96.3104 113.408 95.7292C113.469 94.9235 113.752 94.1526 114.223 93.5072C114.695 92.8618 115.336 92.3688 116.071 92.0864L140.551 83.6359C141.025 83.4736 141.528 83.4191 142.025 83.476C142.521 83.5329 143 83.6999 143.428 83.9655C146.793 86.3721 150.819 87.6026 154.913 87.4759C158.101 87.2425 161.162 86.0901 163.746 84.1503C163.973 83.9592 164.249 83.8386 164.54 83.8024C164.831 83.7661 165.127 83.8157 165.392 83.9455C165.657 84.0753 165.881 84.2798 166.037 84.5355C166.194 84.7911 166.277 85.0873 166.277 85.3897V97.7274C166.278 98.0914 166.208 98.4518 166.072 98.7879C165.937 99.124 165.738 99.4292 165.488 99.6861C165.238 99.9429 164.941 100.146 164.614 100.284C164.288 100.423 163.938 100.493 163.585 100.492L117.49 100.3Z" fill="white"/>
<path d="M166.861 36.7622C167.933 35.1433 168.123 33.01 168.123 30.9203C168.124 27.8088 167.111 24.7871 165.246 22.34C163.382 19.8929 160.774 18.1621 157.841 17.4253C154.908 16.6885 151.82 16.9883 149.073 18.2767C146.325 19.565 144.076 21.7673 142.688 24.5302C141.3 21.7671 139.052 19.5646 136.304 18.276C133.556 16.9874 130.468 16.6874 127.536 17.4242C124.603 18.1609 121.995 19.8917 120.13 22.3389C118.266 24.7861 117.253 27.8078 117.254 30.9194C117.135 33.6533 117.921 36.3479 119.483 38.5605C124.685 45.1762 142.688 62.8165 142.688 62.8165C142.688 62.8165 161.929 44.206 166.861 36.7622Z" fill="#FD5D76"/>
<path d="M245.903 66.5068H181.521V106.357H245.903V66.5068Z" fill="#C1D8ED"/>
<path d="M194.258 78.4648H187.901V99.9887H194.258V78.4648Z" fill="white"/>
<path d="M228.025 86.4316H221.669V99.9892H228.025V86.4316Z" fill="white"/>
<path d="M205.514 91.9277H199.157V99.9891H205.514V91.9277Z" fill="white"/>
<path d="M216.769 80.5371H210.413V99.989H216.769V80.5371Z" fill="white"/>
<path d="M239.28 83.8691H232.924V99.9892H239.28V83.8691Z" fill="white"/>
<path d="M246.025 16.4961H181.643V56.3461H246.025V16.4961Z" fill="#C1D8ED"/>
<path d="M194.38 39.1855H188.023V49.979H194.38V39.1855Z" fill="white"/>
<path d="M228.146 26.7002H221.79V49.978H228.146V26.7002Z" fill="white"/>
<path d="M205.636 26.7002H199.279V49.978H205.636V26.7002Z" fill="white"/>
<path d="M216.891 31.5703H210.534V49.9782H216.891V31.5703Z" fill="white"/>
<path d="M239.402 41.917H233.046V49.9783H239.402V41.917Z" fill="white"/>
<path d="M206.595 458.99H73.6377C66.3453 438.678 88.2563 428.661 95.2221 441.824C91.0672 433.971 89.9639 424.019 98.5924 417.612C107.638 412.534 118.528 418.339 120.195 427.525C117.977 415.293 128.541 403.103 140.297 400.331C170.466 393.223 177.197 425.08 174.463 430.089C182.433 415.494 215.381 433.508 206.595 458.99Z" fill="#8DDBE0"/>
<path d="M510.513 458.989H452.75C442.71 445.377 425.105 417.917 436.483 406.188C441.655 400.866 447.344 405.929 452.642 415.009C450.825 397.22 452.642 380.219 464.654 375.255C475.59 370.745 480.478 384.371 482.366 402.652C487.745 392.257 494.832 384.937 504.071 385.517C517.29 386.33 514.099 404.5 506.366 424.618C512.234 420.023 518.366 417.756 524.342 419.776C536.855 424.002 525.166 442.099 510.513 458.989Z" fill="#8DDBE0"/>
<path d="M372.846 210.284C372.846 212.933 371.489 221.784 373.671 222.417C374.979 222.796 376.524 216.197 376.524 216.197" fill="#E98862"/>
<path d="M383.144 208.892C383.144 208.892 390.267 226.763 382.142 237.03C381.935 237.291 381.656 237.482 381.342 237.577C381.028 237.672 380.694 237.668 380.382 237.564C380.071 237.46 379.797 237.262 379.596 236.995C379.396 236.729 379.278 236.406 379.258 236.069C378.863 229.147 377.509 214.923 373.081 216.589V205.426" fill="#E98862"/>
<path d="M278.63 449.387C276.722 432.845 276.722 431.143 276.722 430.583H294.824C294.824 430.526 294.824 430.453 294.824 430.365C294.887 431.746 295.8 440.171 296.61 447.183L278.63 449.387Z" fill="#E98862"/>
<path d="M350.759 451.617C350.759 451.617 350.698 432.294 350.698 430.583H368.8C368.8 432.29 368.86 451.552 368.86 451.552L350.759 451.617Z" fill="#E98862"/>
<path d="M303.842 443.495L271.948 442.935C273.274 408.317 273.5 368.721 273.856 332.89C273.954 324.009 274.605 315.144 275.804 306.349C280.935 268.39 284.281 230.649 291.189 192.906L291.419 192.977L292.093 188.241L357.671 184.069L361.084 228.232C361.084 228.232 369.626 381.007 373.521 442.436L341.741 445.203C336.015 384.976 327.153 297.219 321.703 233.948C315.444 264.752 311.187 296.647 305.744 327.188C304.659 365.416 303.74 405.38 303.842 443.495Z" fill="#262626"/>
<path d="M328.753 458.834C328.266 458.831 327.785 458.725 327.34 458.523C326.894 458.32 326.494 458.025 326.165 457.656C325.835 457.287 325.583 456.852 325.423 456.378C325.264 455.903 325.201 455.401 325.239 454.9C325.292 454.207 325.535 453.543 325.941 452.988C326.347 452.432 326.899 452.008 327.531 451.765L348.6 444.491C349.008 444.352 349.441 444.305 349.868 444.354C350.296 444.403 350.708 444.546 351.077 444.774C353.973 446.846 357.437 447.905 360.961 447.795C363.706 447.594 366.34 446.602 368.565 444.932C368.76 444.767 368.997 444.662 369.248 444.631C369.499 444.599 369.754 444.641 369.982 444.753C370.21 444.865 370.403 445.041 370.538 445.262C370.673 445.482 370.744 445.738 370.743 445.999V456.619C370.743 456.932 370.683 457.242 370.566 457.532C370.45 457.821 370.279 458.084 370.063 458.305C369.848 458.526 369.593 458.701 369.311 458.82C369.03 458.939 368.729 458.999 368.425 458.998L328.753 458.834Z" fill="#C1D8ED"/>
<path d="M256.575 458.834C256.088 458.831 255.607 458.726 255.162 458.523C254.717 458.32 254.317 458.025 253.987 457.656C253.657 457.287 253.405 456.852 253.246 456.378C253.086 455.904 253.024 455.401 253.061 454.9C253.114 454.207 253.357 453.544 253.763 452.988C254.169 452.433 254.721 452.008 255.353 451.765L276.422 444.491C276.831 444.352 277.263 444.305 277.69 444.354C278.118 444.403 278.529 444.546 278.898 444.774C281.794 446.846 285.259 447.905 288.783 447.795C291.528 447.594 294.162 446.602 296.386 444.932C296.582 444.767 296.819 444.663 297.07 444.631C297.321 444.599 297.575 444.642 297.804 444.754C298.032 444.865 298.225 445.042 298.36 445.262C298.495 445.483 298.566 445.738 298.565 445.999V456.619C298.565 456.932 298.505 457.242 298.389 457.532C298.272 457.821 298.101 458.084 297.886 458.305C297.67 458.526 297.415 458.701 297.134 458.82C296.853 458.939 296.551 459 296.247 458.998L256.575 458.834Z" fill="#C1D8ED"/>
<path d="M336.979 93.136C336.979 93.136 330.313 89.4932 331.802 70.7841L318.03 68.1523C318.03 68.1523 319.581 84.9254 312.61 90.2511L336.979 93.136Z" fill="#E98862"/>
<g opacity="0.15">
<path d="M315.433 86.7448L326.873 77.7239L317.888 77.6279C317.627 80.7979 316.794 83.8899 315.433 86.7448Z" fill="black"/>
</g>
<path d="M339.616 63.528C338.662 69.2064 335.66 74.5809 330.799 76.4112C325.504 78.5796 319.774 79.3785 314.11 78.7382C299.034 77.4641 302.016 42.132 309.174 35.2675C316.331 28.403 337.341 32.7504 339.896 44.2298C341.217 50.1667 340.523 58.1277 339.616 63.528Z" fill="#E98862"/>
<path d="M298.631 31.9864C298.631 27.2924 304.298 19.6034 319.415 30.2094L319.43 30.22C323.357 30.1064 327.281 30.5483 331.091 31.5332C333.822 32.3459 336.373 33.6978 338.603 35.5137C342.809 39.0322 345.876 44.8207 344.448 54.1233C341.965 70.294 335.541 74.6041 332.303 76.5872C331.478 77.0919 331.278 76.6805 330.992 75.7369C330.094 72.2467 329.452 68.6919 329.071 65.1025C328.578 61.3655 325.325 58.9976 325.719 54.5294C325.857 52.9665 328.297 47.2437 320.743 47.1779C316.494 47.1424 318.083 47.3165 313.549 47.3165C312.902 47.3165 312.332 47.2863 311.806 47.2383H311.8C296.149 47.2401 298.631 36.6812 298.631 31.9864Z" fill="#0F1011"/>
<path d="M324.547 61.0206C324.454 62.4515 324.91 63.8629 325.818 64.9496C326.726 66.0363 328.013 66.711 329.399 66.8278C330.786 66.9445 332.162 66.4939 333.229 65.5735C334.296 64.6531 334.969 63.3367 335.101 61.9091C335.17 61.1924 335.099 60.4688 334.891 59.7813C334.682 59.0938 334.342 58.4565 333.89 57.9074C333.438 57.3582 332.884 56.9084 332.259 56.5848C331.635 56.2612 330.954 56.0704 330.257 56.0237C326.483 55.9002 324.786 58.0193 324.547 61.0206Z" fill="#E98862"/>
<path d="M326.873 43.707L330.772 45.1784C330.772 45.1784 329.392 65.2584 328.299 70.7449C327.205 76.2314 324.155 79.8076 320.695 80.1132C315.382 80.5824 311.533 80.6197 307.636 79.1848C303.24 77.5659 303.857 65.413 303.857 65.413C303.857 65.413 317.998 66.9919 321.91 65.0576C325.823 63.1234 326.873 43.707 326.873 43.707Z" fill="#0F1011"/>
<path d="M318.05 59.1579C318.74 59.1579 319.299 58.5815 319.299 57.8704C319.299 57.1594 318.74 56.583 318.05 56.583C317.36 56.583 316.801 57.1594 316.801 57.8704C316.801 58.5815 317.36 59.1579 318.05 59.1579Z" fill="#0F1011"/>
<path d="M308.196 58.3249C308.886 58.3249 309.445 57.7485 309.445 57.0374C309.445 56.3264 308.886 55.75 308.196 55.75C307.506 55.75 306.947 56.3264 306.947 57.0374C306.947 57.7485 307.506 58.3249 308.196 58.3249Z" fill="#0F1011"/>
<path d="M306.032 54.2939C305.88 54.289 305.736 54.2237 305.63 54.1117C305.524 53.9997 305.464 53.8496 305.463 53.6931C305.462 53.5366 305.52 53.3858 305.624 53.2723C305.729 53.1588 305.872 53.0916 306.024 53.0846L309.333 53.042C309.487 53.0469 309.633 53.1109 309.743 53.2214C309.853 53.332 309.918 53.481 309.927 53.6391C309.928 53.7185 309.914 53.7973 309.885 53.8711C309.857 53.9449 309.814 54.0121 309.76 54.0689C309.707 54.1258 309.643 54.1712 309.572 54.2025C309.501 54.2337 309.425 54.2503 309.348 54.2512L306.039 54.2939H306.032Z" fill="#0F1011"/>
<path d="M320.748 55.538C320.702 55.5381 320.655 55.5324 320.61 55.5211L317.347 54.7117C317.272 54.6939 317.2 54.6608 317.137 54.6143C317.074 54.5678 317.02 54.5088 316.979 54.4407C316.938 54.3726 316.91 54.2969 316.898 54.2178C316.886 54.1387 316.889 54.0578 316.907 53.9799C316.925 53.9021 316.958 53.8287 317.004 53.7641C317.05 53.6994 317.108 53.6449 317.175 53.6035C317.241 53.5621 317.315 53.5348 317.392 53.5231C317.469 53.5114 317.547 53.5155 317.622 53.5353L320.884 54.3447C321.024 54.3794 321.146 54.4656 321.228 54.5871C321.31 54.7085 321.346 54.8567 321.33 55.0036C321.313 55.1506 321.244 55.2861 321.137 55.3846C321.03 55.483 320.892 55.5376 320.748 55.538Z" fill="#0F1011"/>
<g opacity="0.15">
<path d="M312.505 65.0109C312.609 65.011 312.709 64.9729 312.787 64.9034C312.865 64.834 312.917 64.738 312.932 64.6327C312.947 64.5275 312.925 64.42 312.87 64.33C312.815 64.2399 312.731 64.1732 312.632 64.142L310.091 63.3379L311.868 59.2588C311.911 59.1521 311.912 59.0324 311.87 58.9252C311.829 58.818 311.748 58.7316 311.646 58.6844C311.544 58.6372 311.428 58.6328 311.323 58.6722C311.218 58.7116 311.131 58.7916 311.082 58.8954L309.105 63.4338C309.08 63.4913 309.067 63.5536 309.067 63.6165C309.068 63.6794 309.081 63.7416 309.106 63.7989C309.131 63.8562 309.168 63.9073 309.214 63.9488C309.26 63.9904 309.314 64.0214 309.372 64.0398L312.379 64.9914C312.42 65.0044 312.462 65.011 312.505 65.0109Z" fill="black"/>
</g>
<path d="M317.472 68.0095C317.472 68.0095 312.861 68.5106 309.628 67.3467C309.628 67.3467 309.654 70.4769 313.302 70.7852C316.95 71.0935 317.472 68.0095 317.472 68.0095Z" fill="white"/>
<path d="M361.322 159.477L369.073 213.337L387.665 210.494L379.795 155.81C379.716 155.262 379.592 154.722 379.423 154.196L362.799 102.274L362.655 102.322C361.816 99.4722 360.3 96.8836 358.245 94.791C354.305 90.7305 347.504 88.1095 339.212 88.1006C338.591 93.0851 309.232 93.1028 309.008 88.2161C307.887 88.2339 307.016 88.2516 306.473 88.2783C277.872 89.5488 290.44 123.099 290.716 147.745C291.052 176.586 283.493 182.024 287.216 190.838C290.828 199.394 361.796 202.948 362.744 187.897C363.348 178.319 355.159 169.958 355.159 151.291C355.195 148.508 355.494 145.736 356.05 143.013L361.322 159.477Z" fill="#367CFF"/>
<path d="M305.292 144.992C305.292 144.992 316.003 142.707 318.376 145.152C320.749 147.597 321.019 157.813 316.605 157.205C315.532 157.057 315.003 154.685 313.071 155.403C309.84 156.602 304.785 154.781 304.785 154.781" fill="#E98862"/>
<path d="M305.292 161.973H263.763C262.042 161.974 260.354 161.487 258.883 160.566C257.412 159.646 256.214 158.326 255.421 156.751C254.628 155.177 254.27 153.408 254.385 151.638C254.501 149.868 255.086 148.165 256.077 146.714L291.087 95.415L306.459 106.561L281.863 142.599H305.292V161.973Z" fill="#367CFF"/>
<path d="M308.183 143.144H302.401C301.863 143.144 301.427 143.593 301.427 144.148V144.148C301.427 144.703 301.863 145.152 302.401 145.152H308.183C308.721 145.152 309.157 144.703 309.157 144.148V144.148C309.157 143.593 308.721 143.144 308.183 143.144Z" fill="#262626"/>
<path d="M306.571 144.148H304.013V156.278H306.571V144.148Z" fill="#262626"/>
<path d="M309.008 88.2161C309.232 93.1028 311.809 100.291 319.765 100.833C330.368 101.552 338.591 93.0851 339.212 88.1006H339.186C328.747 88.1006 315.093 88.1184 309.008 88.2161Z" fill="#E98862"/>
</g>
<defs>
<clipPath id="clip0_678_1660">
<rect width="604" height="459" fill="white"/>
</clipPath>
</defs>
</svg>
