<svg width="309" height="342" viewBox="0 0 409 442" fill="none" xmlns="http://www.w3.org/2000/svg">
<g clip-path="url(#clip0_2674_10493)">
<path d="M99.1521 392.113H205.652C212.135 392.113 217.391 387.165 217.391 381.06L217.391 228.234C217.391 222.129 212.135 217.181 205.652 217.181H99.1521C92.6693 217.181 87.4138 222.129 87.4138 228.234L87.4138 381.06C87.4138 387.165 92.6693 392.113 99.1521 392.113Z" fill="#F3F5FD"/>
<path d="M209.351 270.367H277.672V257.685H209.351V270.367Z" fill="#F3F5FD"/>
<path d="M157.199 304.647H148.641V24.3081C148.649 17.8638 151.372 11.6858 156.211 7.12891C161.05 2.57204 167.611 0.00831699 174.455 0H332.675C339.519 0.00810378 346.08 2.57173 350.919 7.12862C355.759 11.6855 358.481 17.8637 358.49 24.3081V39.0733C358.481 45.5177 355.759 51.6959 350.919 56.2528C346.08 60.8097 339.519 63.3733 332.675 63.3814H320.008C315.433 63.3863 311.047 65.0998 307.812 68.146C304.577 71.1922 302.757 75.3223 302.752 79.6303V96.2475H294.193V79.6303C294.202 73.1859 296.925 67.0077 301.764 62.4508C306.603 57.8939 313.164 55.3303 320.008 55.3222H332.675C337.25 55.3173 341.636 53.6038 344.871 50.5576C348.106 47.5114 349.926 43.3813 349.931 39.0733V24.3081C349.926 20.0001 348.106 15.87 344.871 12.8238C341.636 9.77759 337.25 8.06408 332.675 8.05918H174.455C169.88 8.06408 165.494 9.77762 162.259 12.8238C159.024 15.8701 157.204 20.0002 157.199 24.3081V304.647Z" fill="#F3F5FD"/>
<path d="M329.32 109.06C329.32 105.273 328.528 101.523 326.989 98.0244C325.45 94.5257 323.194 91.3467 320.35 88.6689C317.506 85.9911 314.13 83.867 310.415 82.4178C306.699 80.9686 302.717 80.2227 298.695 80.2227C294.673 80.2227 290.691 80.9686 286.975 82.4178C283.26 83.867 279.884 85.9911 277.04 88.6689C274.196 91.3467 271.941 94.5257 270.401 98.0244C268.862 101.523 268.07 105.273 268.07 109.06H329.32Z" fill="#F3F5FD"/>
<path d="M234.75 448H70.0497V381.281C70.0497 378.205 71.3475 375.255 73.6575 373.08C75.9675 370.905 79.1005 369.682 82.3674 369.682H222.432C225.699 369.682 228.832 370.905 231.142 373.08C233.452 375.255 234.75 378.205 234.75 381.281V448Z" fill="#F3F5FD"/>
<path d="M21.597 295.602H93.9386C105.868 295.602 115.539 286.495 115.539 275.262V261.837C115.539 250.604 105.868 241.497 93.9386 241.497H21.597C9.6674 241.497 -0.00346375 250.604 -0.00346375 261.837V275.262C-0.00346375 286.495 9.6674 295.602 21.597 295.602Z" fill="#F3F5FD"/>
<path d="M64.8145 307.277H64.8154C66.3412 307.277 67.5781 306.113 67.5781 304.676V270.401C67.5781 268.964 66.3412 267.799 64.8154 267.799H64.8145C63.2887 267.799 62.0518 268.964 62.0518 270.401L62.0518 304.676C62.0518 306.113 63.2887 307.277 64.8145 307.277Z" fill="#C1D8ED"/>
<path d="M47.6973 307.277H47.6982C49.224 307.277 50.4609 306.113 50.4609 304.676L50.4609 270.401C50.4609 268.964 49.224 267.799 47.6982 267.799H47.6973C46.1715 267.799 44.9346 268.964 44.9346 270.401L44.9346 304.676C44.9346 306.113 46.1715 307.277 47.6973 307.277Z" fill="#C1D8ED"/>
<path d="M30.5801 307.277H30.581C32.1068 307.277 33.3438 306.113 33.3438 304.676L33.3438 270.401C33.3438 268.964 32.1068 267.799 30.581 267.799H30.5801C29.0543 267.799 27.8174 268.964 27.8174 270.401L27.8174 304.676C27.8174 306.113 29.0543 307.277 30.5801 307.277Z" fill="#C1D8ED"/>
<path d="M56.2566 374.907C53.6471 374.904 51.1453 373.927 49.3001 372.189C47.4549 370.452 46.417 368.096 46.4141 365.639V302.568H48.9817V365.639C48.9817 367.455 49.7481 369.198 51.1124 370.483C52.4768 371.767 54.3271 372.489 56.2566 372.489C58.186 372.489 60.0364 371.767 61.4007 370.483C62.765 369.198 63.5315 367.455 63.5315 365.639V302.568H66.0991V365.639C66.0961 368.096 65.0582 370.452 63.213 372.189C61.3678 373.927 58.8661 374.904 56.2566 374.907Z" fill="#C1D8ED"/>
<path d="M39.1394 374.907C36.5299 374.904 34.0281 373.927 32.1829 372.189C30.3377 370.452 29.2998 368.096 29.2969 365.639V302.568H31.8645V365.639C31.8645 367.455 32.6309 369.198 33.9953 370.483C35.3596 371.767 37.21 372.489 39.1394 372.489C41.0688 372.489 42.9192 371.767 44.2835 370.483C45.6478 369.198 46.4143 367.455 46.4143 365.639V302.568H48.9819V365.639C48.979 368.096 47.941 370.452 46.0958 372.189C44.2506 373.927 41.7489 374.904 39.1394 374.907Z" fill="#C1D8ED"/>
<path d="M64.1398 270.367H65.4844V261.362H64.1398V270.367Z" fill="#C1D8ED"/>
<path d="M64.8156 263.098C65.7406 263.098 66.4905 262.392 66.4905 261.521C66.4905 260.649 65.7406 259.943 64.8156 259.943C63.8905 259.943 63.1406 260.649 63.1406 261.521C63.1406 262.392 63.8905 263.098 64.8156 263.098Z" fill="#C1D8ED"/>
<path d="M47.0148 270.367H48.3594V261.362H47.0148V270.367Z" fill="#C1D8ED"/>
<path d="M47.6906 263.098C48.6156 263.098 49.3655 262.392 49.3655 261.521C49.3655 260.649 48.6156 259.943 47.6906 259.943C46.7655 259.943 46.0156 260.649 46.0156 261.521C46.0156 262.392 46.7655 263.098 47.6906 263.098Z" fill="#C1D8ED"/>
<path d="M29.8976 270.367H31.2422V261.362H29.8976V270.367Z" fill="#C1D8ED"/>
<path d="M30.5734 263.098C31.4984 263.098 32.2483 262.392 32.2483 261.521C32.2483 260.649 31.4984 259.943 30.5734 259.943C29.6483 259.943 28.8984 260.649 28.8984 261.521C28.8984 262.392 29.6483 263.098 30.5734 263.098Z" fill="#C1D8ED"/>
<path d="M60.2824 261.797H64.8125V260.93H60.2824V261.797Z" fill="#C1D8ED"/>
<path d="M42.6652 261.797H47.1953V260.93H42.6652V261.797Z" fill="#C1D8ED"/>
<path d="M25.3761 261.797H29.9062V260.93H25.3761V261.797Z" fill="#C1D8ED"/>
<path d="M258.107 257.688H234.897C232.188 257.688 229.59 256.674 227.675 254.871C225.76 253.067 224.684 250.621 224.684 248.07V232.266H268.32V248.07C268.32 250.621 267.244 253.067 265.329 254.871C263.414 256.674 260.816 257.688 258.107 257.688Z" fill="#D7E8F4"/>
<path d="M259.512 243.158C258.944 243.158 258.4 242.946 257.999 242.568C257.597 242.19 257.372 241.678 257.372 241.144V206.806C257.346 205.358 256.716 203.978 255.62 202.963C254.523 201.948 253.047 201.379 251.509 201.379C249.971 201.379 248.495 201.948 247.399 202.963C246.302 203.978 245.673 205.358 245.647 206.806V209.78C245.647 210.315 245.421 210.827 245.02 211.205C244.619 211.583 244.074 211.795 243.507 211.795C242.939 211.795 242.395 211.583 241.994 211.205C241.593 210.827 241.367 210.315 241.367 209.78V206.806C241.402 204.294 242.486 201.897 244.384 200.133C246.282 198.368 248.842 197.379 251.509 197.379C254.177 197.379 256.736 198.368 258.635 200.133C260.533 201.897 261.617 204.294 261.651 206.806V241.144C261.651 241.678 261.426 242.19 261.025 242.568C260.623 242.946 260.079 243.158 259.512 243.158Z" fill="#D7E8F4"/>
<path d="M133.955 102.208C133.964 101.982 133.964 101.764 133.964 101.531C133.972 100.064 133.904 98.4681 133.75 96.7273L135.548 96.413L147.427 94.3418C147.19 97.2033 147.236 100.079 147.564 102.933C147.607 103.255 147.65 103.586 147.7 103.916C147.734 104.174 147.778 104.44 147.829 104.698C147.879 104.956 147.914 105.206 147.974 105.455C148.077 105.987 148.197 106.519 148.342 107.043C148.369 107.169 148.403 107.292 148.446 107.414C148.447 107.436 148.453 107.458 148.463 107.478C148.531 107.744 148.616 108.018 148.711 108.276C148.804 108.574 148.908 108.864 149.028 109.155C149.062 109.243 149.096 109.34 149.139 109.429C149.249 109.719 149.378 110.001 149.516 110.275C149.66 110.589 149.823 110.895 149.995 111.194C150.003 111.194 150.003 111.202 150.003 111.202C150.648 112.392 151.556 113.439 152.665 114.272H131.156C132.485 112.112 133.855 108.396 133.955 102.208Z" fill="#E98862"/>
<path opacity="0.15" d="M150.007 111.203L138.648 103.021L147.571 102.934C147.828 105.809 148.654 108.614 150.007 111.203Z" fill="black"/>
<path d="M125.999 90.1472C126.946 95.2962 129.93 100.171 134.752 101.833C140.478 103.807 144.719 103.94 151.32 103.94C160.328 103.94 160.03 95.0947 160.283 86.1796C160.54 77.2291 159.781 67.629 156.221 64.5101C149.117 58.2844 128.257 62.227 125.72 72.6394C124.408 78.0262 125.098 85.2472 125.999 90.1472Z" fill="#E98862"/>
<path d="M165.848 64.4124C164.341 59.2086 159.644 56.6667 151.877 58.5775C146.353 59.9371 145.654 58.7153 140.977 56.595C138.298 55.3804 129.508 55.9349 127.333 61.5369C125.002 67.5377 117.789 62.678 117.119 72.4538C116.559 80.6363 118.241 91.2623 127.895 98.4148C129.435 99.8717 131.185 101.118 133.093 102.117C133.912 102.576 134.11 102.203 134.394 101.346C135.399 98.3214 137.431 87.7364 136.597 79.1244C136.461 77.7076 136.742 75.505 140.6 75.3527C144.814 75.1859 155.767 76.078 159.643 73.462C159.647 73.462 167.355 69.6154 165.848 64.4124Z" fill="#0F1011"/>
<path d="M147.404 86.1812C148.089 86.1812 148.644 85.6584 148.644 85.0135C148.644 84.3685 148.089 83.8457 147.404 83.8457C146.719 83.8457 146.164 84.3685 146.164 85.0135C146.164 85.6584 146.719 86.1812 147.404 86.1812Z" fill="#0F1011"/>
<path d="M157.193 85.4273C157.878 85.4273 158.433 84.9045 158.433 84.2596C158.433 83.6146 157.878 83.0918 157.193 83.0918C156.508 83.0918 155.953 83.6146 155.953 84.2596C155.953 84.9045 156.508 85.4273 157.193 85.4273Z" fill="#0F1011"/>
<path d="M159.343 81.7703H159.335L156.049 81.7316C155.899 81.7253 155.756 81.6643 155.653 81.5614C155.549 81.4585 155.491 81.3217 155.492 81.1797C155.493 81.0377 155.553 80.9016 155.658 80.8C155.763 80.6984 155.906 80.6392 156.057 80.6348H156.064L159.349 80.6734C159.5 80.6797 159.642 80.7406 159.746 80.8434C159.85 80.9463 159.908 81.083 159.907 81.225C159.906 81.3669 159.847 81.5031 159.741 81.6047C159.636 81.7064 159.493 81.7658 159.343 81.7703Z" fill="#0F1011"/>
<path d="M144.73 82.8986C144.587 82.8982 144.45 82.8487 144.343 82.7594C144.237 82.6701 144.169 82.5472 144.152 82.4139C144.136 82.2806 144.172 82.1461 144.253 82.036C144.335 81.9259 144.456 81.8477 144.595 81.8162L147.833 81.082C147.983 81.05 148.139 81.0747 148.27 81.1509C148.4 81.227 148.493 81.3483 148.529 81.4886C148.565 81.629 148.541 81.7769 148.462 81.9006C148.382 82.0242 148.255 82.1134 148.106 82.1491L144.867 82.8832C144.822 82.8935 144.776 82.8986 144.73 82.8986Z" fill="#0F1011"/>
<path d="M140.965 87.8711C141.032 88.5242 140.96 89.1832 140.754 89.8098C140.547 90.4364 140.211 91.0182 139.764 91.5213C139.317 92.0244 138.768 92.4388 138.149 92.7404C137.53 93.042 136.854 93.2249 136.16 93.2783C135.465 93.3317 134.767 93.2546 134.104 93.0515C133.442 92.8484 132.829 92.5233 132.301 92.0952C131.773 91.6671 131.341 91.1445 131.029 90.5577C130.718 89.9709 130.533 89.3316 130.486 88.677C130.418 88.027 130.489 87.3707 130.696 86.7471C130.902 86.1236 131.24 85.5456 131.689 85.0475C132.138 84.5494 132.688 84.1414 133.308 83.8478C133.928 83.5543 134.604 83.3811 135.296 83.3386C139.04 83.2266 140.725 85.1463 140.965 87.8711Z" fill="#E98862"/>
<g opacity="0.15">
<path d="M152.913 91.49C152.81 91.49 152.711 91.4554 152.633 91.3925C152.556 91.3295 152.504 91.2424 152.489 91.1469C152.474 91.0514 152.496 90.954 152.55 90.8723C152.605 90.7906 152.689 90.7301 152.787 90.7018L155.309 89.9764L153.545 86.2765C153.5 86.1793 153.498 86.0693 153.538 85.9705C153.579 85.8716 153.659 85.7918 153.762 85.7483C153.865 85.7049 153.981 85.7012 154.087 85.7383C154.192 85.7753 154.278 85.8499 154.326 85.946L156.289 90.0619C156.314 90.114 156.327 90.1706 156.327 90.2277C156.326 90.2849 156.313 90.3414 156.288 90.3935C156.263 90.4455 156.227 90.492 156.181 90.5297C156.135 90.5674 156.082 90.5956 156.024 90.6123L153.038 91.4754C152.998 91.4865 152.955 91.4914 152.913 91.49Z" fill="black"/>
</g>
<path d="M147.984 94.2106C147.984 94.2106 152.562 94.6651 155.773 93.6094C155.773 93.6094 155.748 96.4486 152.125 96.7283C148.502 97.0079 147.984 94.2106 147.984 94.2106Z" fill="#F8FCFF"/>
<path d="M101.5 304.653H184.363L167.641 202.109L111.128 205.762L101.5 304.653Z" fill="#DEE8F5"/>
<path opacity="0.07" d="M101.5 304.653H184.363L167.641 202.109L111.128 205.762L101.5 304.653Z" fill="#0F1011"/>
<path d="M185.489 438.649L167.641 436.646C168.444 430.286 169.352 422.645 169.414 421.393C169.414 421.473 169.414 421.538 169.414 421.59H187.387C187.384 422.101 187.384 423.644 185.489 438.649Z" fill="#E98862"/>
<path d="M113.872 440.67L95.8984 440.615C95.8984 440.615 95.9583 423.14 95.9583 421.596H113.932C113.932 423.144 113.872 440.67 113.872 440.67Z" fill="#E98862"/>
<path d="M160.454 433.305L192.117 432.796C190.63 397.311 190.539 360.088 190.075 324.516C183.895 286.175 181.497 240.765 173.869 202.699H105.832C105.832 202.699 95.1333 376.624 91.2656 432.343L122.821 434.853C128.505 380.224 138.16 307.877 143.571 250.487C149.786 278.427 153.157 300.106 158.562 327.807C159.642 362.482 160.556 398.731 160.454 433.305Z" fill="#262626"/>
<path d="M135.723 447.218C136.207 447.216 136.684 447.12 137.126 446.936C137.569 446.752 137.966 446.484 138.293 446.15C138.62 445.815 138.871 445.42 139.029 444.99C139.187 444.56 139.249 444.104 139.212 443.65C139.16 443.021 138.918 442.419 138.515 441.915C138.112 441.411 137.564 441.026 136.936 440.806L116.017 434.208C115.611 434.081 115.182 434.039 114.757 434.084C114.333 434.128 113.924 434.258 113.558 434.466C110.682 436.344 107.242 437.305 103.744 437.206C101.018 437.023 98.4025 436.124 96.194 434.609C96 434.459 95.7647 434.364 95.5155 434.335C95.2663 434.307 95.0136 434.345 94.7868 434.447C94.5601 434.548 94.3686 434.708 94.2348 434.908C94.101 435.108 94.0304 435.34 94.0313 435.576V445.209C94.0313 445.493 94.0908 445.774 94.2066 446.037C94.3224 446.299 94.4921 446.537 94.7059 446.738C94.9197 446.938 95.1735 447.097 95.4527 447.205C95.7319 447.313 96.0309 447.368 96.3327 447.367L135.723 447.218Z" fill="#C1D8ED"/>
<path d="M207.387 447.218C207.871 447.216 208.348 447.12 208.791 446.936C209.233 446.752 209.63 446.485 209.957 446.15C210.285 445.815 210.535 445.42 210.693 444.99C210.851 444.56 210.914 444.104 210.876 443.65C210.824 443.021 210.582 442.419 210.179 441.915C209.776 441.411 209.229 441.027 208.601 440.806L187.681 434.208C187.276 434.081 186.846 434.039 186.422 434.084C185.998 434.128 185.589 434.258 185.223 434.466C182.347 436.344 178.907 437.305 175.408 437.206C172.683 437.023 170.067 436.124 167.859 434.609C167.665 434.459 167.429 434.364 167.18 434.336C166.931 434.307 166.678 434.345 166.452 434.447C166.225 434.548 166.033 434.708 165.899 434.908C165.765 435.108 165.695 435.34 165.695 435.576V445.209C165.695 445.493 165.755 445.774 165.871 446.036C165.986 446.299 166.156 446.537 166.37 446.738C166.584 446.938 166.838 447.097 167.117 447.205C167.396 447.313 167.695 447.368 167.997 447.367L207.387 447.218Z" fill="#C1D8ED"/>
<path d="M97.6904 227.046L97.8779 226.678C98.1886 229.061 100.563 236.877 98.4872 237.694C97.6981 238.004 96.4879 235.804 95.7065 234.148C94.011 237.785 94.2704 246.006 94.5811 250.622C94.6011 250.927 94.5227 251.231 94.3563 251.494C94.1899 251.757 93.9432 251.967 93.6483 252.096C93.3534 252.225 93.0241 252.267 92.7035 252.216C92.3828 252.166 92.0856 252.026 91.8508 251.815C82.64 243.495 87.5655 226.596 87.5655 226.596L88.5181 222.33L97.6904 227.046Z" fill="#E98862"/>
<path d="M245.077 136.765C247.503 139.387 246.151 143.926 239.718 147.619C229.94 153.231 230.361 150.088 227.935 147.466C225.508 144.845 230.579 142.088 236.199 136.586C236.764 135.998 237.457 135.532 238.23 135.218C239.003 134.904 239.839 134.75 240.681 134.767C241.523 134.784 242.351 134.971 243.11 135.316C243.868 135.66 244.539 136.154 245.077 136.765Z" fill="#E98862"/>
<path d="M274.86 125.466L237.594 121.338L233.209 156.429L270.475 160.557L274.86 125.466Z" fill="#0F1011"/>
<path d="M273.492 126.479L238.664 122.621L234.567 155.417L269.395 159.275L273.492 126.479Z" fill="#0F1011"/>
<path d="M262.272 139.775C260.941 141.205 259.953 142.89 259.377 144.713L258.35 147.957C258.241 148.301 258.005 148.598 257.684 148.794C257.364 148.99 256.98 149.073 256.601 149.027C256.243 148.983 255.912 148.829 255.659 148.587C255.405 148.345 255.246 148.031 255.205 147.694L255.015 146.121C255.046 145.722 254.915 145.325 254.646 145.014C254.378 144.702 253.994 144.499 253.572 144.446L253.486 144.437C253.056 144.394 252.624 144.504 252.276 144.746C251.929 144.988 251.69 145.344 251.607 145.744L251.032 147.234C250.909 147.552 250.676 147.823 250.371 148.002C250.066 148.182 249.705 148.26 249.347 148.224C248.967 148.186 248.614 148.021 248.35 147.76C248.087 147.499 247.931 147.159 247.909 146.799L247.593 143.407C247.483 141.508 246.937 139.654 245.995 137.971C245.428 136.968 245.228 135.817 245.425 134.696C245.622 133.575 246.206 132.546 247.085 131.768C247.965 130.99 249.091 130.505 250.292 130.39C251.492 130.275 252.7 130.534 253.728 131.129C254.129 131.363 254.579 131.511 255.047 131.563C255.515 131.615 255.989 131.569 256.436 131.43C257.583 131.076 258.821 131.087 259.961 131.462C261.1 131.837 262.077 132.554 262.74 133.503C263.404 134.452 263.718 135.58 263.633 136.713C263.549 137.847 263.07 138.923 262.272 139.775Z" fill="white"/>
<path d="M272.601 133.572L270.983 146.555C270.65 146.624 270.346 146.783 270.107 147.012C269.868 147.241 269.706 147.53 269.639 147.845L269.066 149.336C268.938 149.663 268.694 149.939 268.375 150.117C268.056 150.294 267.683 150.364 267.316 150.313C266.95 150.262 266.613 150.093 266.363 149.836C266.113 149.579 265.964 149.249 265.942 148.901L265.625 145.508C265.513 143.607 264.967 141.752 264.025 140.068C263.459 139.065 263.26 137.915 263.457 136.794C263.654 135.674 264.236 134.646 265.115 133.868C265.993 133.09 267.119 132.606 268.319 132.49C269.518 132.374 270.725 132.632 271.753 133.226C272.016 133.38 272.301 133.497 272.601 133.572Z" fill="white"/>
<path d="M244.234 137.723C242.902 139.154 241.915 140.839 241.341 142.663L240.314 145.903C240.208 146.239 239.982 146.53 239.674 146.727C239.366 146.923 238.995 147.014 238.624 146.982C238.253 146.951 237.905 146.8 237.64 146.555C237.374 146.31 237.206 145.985 237.165 145.637L236.976 144.066C236.99 143.776 236.923 143.489 236.782 143.231C236.64 142.974 236.43 142.756 236.172 142.599L237.815 129.495C238.013 129.475 238.208 129.434 238.397 129.374C239.544 129.021 240.783 129.032 241.922 129.407C243.062 129.782 244.039 130.5 244.702 131.449C245.366 132.398 245.68 133.527 245.595 134.661C245.51 135.794 245.032 136.87 244.234 137.723Z" fill="white"/>
<path d="M235.323 141.625C235.323 141.625 240.789 135.241 239.417 133.95C236.309 131.023 226.299 143.472 226.431 143.364L230.09 150.095" fill="#E98862"/>
<path d="M177.312 204.473C173.727 212.234 103.262 215.458 102.321 201.806C101.722 193.118 109.852 185.534 109.852 168.602C109.852 151.67 93.3083 130.047 106.788 117.354C110.7 113.671 117.453 111.293 125.686 111.285C126.302 115.806 155.453 115.822 155.676 111.39C156.788 111.406 157.653 111.422 158.192 111.446C186.59 112.599 174.111 143.03 173.837 165.386C173.503 191.547 181.009 196.479 177.312 204.473Z" fill="#F4F4F4"/>
<path d="M177.309 204.473C173.724 212.234 106.772 216.352 105.831 202.7C105.232 194.012 109.854 185.533 109.854 168.601C109.854 151.669 94.8818 130.261 108.362 117.568C112.274 113.885 117.837 111.653 126.07 111.645C126.686 116.166 155.466 116.291 155.688 111.859C156.801 111.875 157.665 111.891 158.204 111.915C186.603 113.068 174.112 143.029 173.838 165.386C173.5 191.546 181.006 196.478 177.309 204.473Z" fill="#367CFF"/>
<path d="M155.669 111.39C155.447 115.822 152.116 116.587 144.216 117.079C133.689 117.732 126.296 115.806 125.68 111.285H125.705C136.07 111.285 149.627 111.298 155.669 111.39Z" fill="#E98862"/>
<path d="M138.635 156.458C142.405 192.361 137.339 258.84 137.293 314.244C137.293 314.244 112.364 318.976 91.2648 311.092C91.2648 311.092 103.932 183.952 107.526 155.423C107.526 155.423 106.958 171.031 104.948 179.987C102.939 188.943 100.999 228.537 100.999 228.537C100.999 228.537 96.5549 229.448 82.5469 229.448C82.5469 229.448 82.5469 185.018 85.8959 172.088C89.2449 159.159 100.916 116.626 111.124 113.291C119.303 110.619 130.723 111.284 130.723 111.284C130.723 111.284 136.914 140.077 138.635 156.458Z" fill="#DEE8F5"/>
<path d="M130.72 111.284C130.72 111.284 139.825 144.284 139.825 178.238L124.077 130.776L129.143 124.784L122.039 120.054L123.374 111.357C125.682 110.917 130.72 111.284 130.72 111.284Z" fill="white"/>
<path d="M152.039 111.285C152.039 111.285 150.445 134.877 150.445 156.952C150.445 179.027 154.165 315.619 154.165 315.619C154.165 315.619 184.007 315.834 193.603 313.896C193.603 313.896 190.118 269.168 183.802 214.032C180.009 180.925 176.739 162.749 175.984 156.952C175.984 156.952 189.154 180.404 198.645 180.404C208.135 180.404 234.821 153.364 234.821 153.364C234.821 153.364 234.821 150.099 227.784 138.432L201.924 155.424C201.924 155.424 177.6 117.805 169.482 113.642C165.938 111.826 161.08 111.57 158.184 111.446C154.607 111.293 152.039 111.285 152.039 111.285Z" fill="#DEE8F5"/>
<path d="M152.037 111.285C152.037 111.285 149.023 148.122 150.69 176.963L160.26 130.777L155.669 125.416L161.426 121.316L158.185 111.446L152.037 111.285Z" fill="white"/>
<path d="M330.226 348.754H291.25V439.94H330.226V348.754Z" fill="#C1D8ED"/>
<path d="M399.888 171.943L364.099 166.287C358.155 165.347 352.527 169.124 351.53 174.721L347.352 198.158C346.355 203.755 350.365 209.054 356.31 209.994L392.098 215.65C398.043 216.589 403.67 212.813 404.668 207.215L408.845 183.779C409.843 178.181 405.832 172.882 399.888 171.943Z" fill="#C1D8ED"/>
<path d="M304.341 308.969L380.982 333.9V340.937C380.982 342.696 380.322 344.399 379.118 345.744C377.915 347.089 376.245 347.991 374.404 348.29L297.536 360.772C294.049 361.337 290.849 362.948 288.413 365.365L198.879 429.149C197.716 430.303 196.125 430.991 194.438 431.07C192.75 431.149 191.095 430.613 189.816 429.574L148.617 396.097L242.867 324.11L304.341 308.969Z" fill="#C1D8ED"/>
<path d="M301.13 299.834L377.771 327.989C378.93 328.414 379.909 329.186 380.559 330.185C381.208 331.184 381.492 332.356 381.367 333.522C381.242 334.687 380.715 335.782 379.867 336.639C379.018 337.496 377.895 338.068 376.669 338.267L294.325 351.637C290.838 352.203 287.638 353.814 285.202 356.23L195.668 420.01C194.505 421.164 192.914 421.852 191.227 421.932C189.539 422.011 187.884 421.475 186.604 420.436L145.406 386.958L239.655 314.972L301.13 299.834Z" fill="#DEE8F5"/>
<path d="M392.56 171.943L356.771 166.287C350.827 165.347 345.199 169.124 344.201 174.721L340.024 198.158C339.027 203.755 343.037 209.054 348.981 209.994L384.77 215.65C390.714 216.589 396.342 212.813 397.34 207.215L401.517 183.779C402.515 178.181 398.504 172.882 392.56 171.943Z" fill="#DEE8F5"/>
<path d="M400.024 220.496L331.998 209.746C326.252 208.838 320.812 212.488 319.848 217.898L304.728 302.733C303.763 308.144 307.64 313.266 313.386 314.174L381.411 324.924C387.157 325.832 392.597 322.182 393.561 316.772L408.681 231.937C409.646 226.526 405.769 221.404 400.024 220.496Z" fill="#C1D8ED"/>
<path d="M374.657 323.226L314.163 313.04C312.797 312.824 311.489 312.357 310.314 311.665C309.139 310.973 308.121 310.07 307.317 309.007C306.513 307.944 305.939 306.743 305.628 305.471C305.317 304.199 305.276 302.883 305.505 301.596L320.625 216.761C320.854 215.474 321.351 214.242 322.085 213.136C322.82 212.03 323.779 211.071 324.908 210.314C326.037 209.557 327.313 209.016 328.663 208.724C330.014 208.431 331.412 208.392 332.779 208.608L393.271 218.798C394.637 219.013 395.945 219.481 397.12 220.173C398.295 220.865 399.313 221.768 400.117 222.831C400.921 223.893 401.495 225.095 401.806 226.366C402.117 227.638 402.158 228.955 401.929 230.242L386.807 315.073C386.578 316.36 386.082 317.591 385.347 318.697C384.613 319.803 383.654 320.762 382.526 321.519C381.397 322.276 380.122 322.817 378.772 323.11C377.422 323.402 376.023 323.442 374.657 323.226Z" fill="#DEE8F5"/>
<path d="M340.267 436.082H277.179C273.684 436.082 270.852 438.749 270.852 442.04C270.852 445.33 273.684 447.998 277.179 447.998H340.267C343.762 447.998 346.594 445.33 346.594 442.04C346.594 438.749 343.762 436.082 340.267 436.082Z" fill="#C1D8ED"/>
<path d="M279.999 272.713H270.852V319.729H279.999V272.713Z" fill="#DEE8F5"/>
<path d="M255.33 264.877H295.019C298.111 264.877 301.077 266.034 303.264 268.093C305.451 270.152 306.679 272.945 306.679 275.857H243.672C243.672 272.945 244.9 270.152 247.087 268.093C249.274 266.034 252.24 264.877 255.332 264.877H255.33Z" fill="#DEE8F5"/>
<path d="M174.245 398.491L160.18 387.953C170.171 376.129 171.337 375.042 171.72 374.686L184.362 386.714C184.401 386.678 184.452 386.633 184.51 386.573C183.608 387.496 178.479 393.478 174.245 398.491Z" fill="#E98862"/>
<path d="M138.31 379.326C137.972 379.001 137.708 378.614 137.536 378.189C137.363 377.763 137.286 377.309 137.308 376.855C137.331 376.4 137.453 375.955 137.666 375.546C137.88 375.138 138.18 374.775 138.549 374.481C139.06 374.074 139.685 373.812 140.348 373.727C141.012 373.643 141.688 373.738 142.296 374.003L161.993 383.36C162.374 383.542 162.708 383.8 162.973 384.115C163.238 384.43 163.428 384.796 163.529 385.186C164.133 388.433 165.828 391.411 168.365 393.682C170.421 395.378 172.942 396.495 175.64 396.906C175.89 396.931 176.127 397.022 176.323 397.168C176.52 397.315 176.669 397.511 176.752 397.734C176.835 397.957 176.848 398.198 176.792 398.428C176.735 398.658 176.61 398.869 176.431 399.034L169.161 405.811C168.946 406.012 168.692 406.17 168.412 406.278C168.132 406.385 167.832 406.44 167.53 406.438C167.228 406.436 166.929 406.377 166.651 406.266C166.372 406.155 166.12 405.993 165.909 405.79L138.31 379.326Z" fill="#C1D8ED"/>
<path d="M378.101 296.994L375.983 313.408C374.348 326.065 363.691 335.168 350.4 332.731L301.133 323.664L313.328 289.709L378.101 296.994Z" fill="#262626"/>
<path d="M177.994 419.158L165.211 407.261C165.211 407.261 178.294 394.796 179.456 393.695L192.2 405.63C191.041 406.729 177.994 419.158 177.994 419.158Z" fill="#E98862"/>
<path d="M144.813 397.397C144.472 397.074 144.206 396.689 144.03 396.265C143.854 395.841 143.773 395.388 143.792 394.933C143.81 394.478 143.928 394.032 144.138 393.622C144.348 393.212 144.646 392.847 145.012 392.55C145.52 392.139 146.142 391.873 146.805 391.784C147.468 391.694 148.144 391.785 148.755 392.045L168.525 401.26C168.907 401.439 169.244 401.694 169.511 402.007C169.779 402.321 169.971 402.685 170.075 403.075C170.706 406.317 172.426 409.284 174.981 411.537C177.05 413.217 179.578 414.316 182.278 414.709C182.528 414.732 182.766 414.821 182.964 414.966C183.162 415.111 183.312 415.306 183.397 415.529C183.482 415.751 183.498 415.992 183.443 416.223C183.388 416.453 183.265 416.665 183.087 416.832L175.873 423.661C175.66 423.862 175.407 424.022 175.128 424.131C174.849 424.24 174.551 424.296 174.249 424.296C173.947 424.296 173.648 424.24 173.37 424.131C173.091 424.022 172.838 423.862 172.625 423.661L144.813 397.397Z" fill="#C1D8ED"/>
<path d="M269.031 295.477C260.539 296.984 257.254 297.653 251.176 301.098C249.385 302.112 243.782 306.147 237.61 313.303C216.823 337.408 164.572 376.803 160.695 379.718L183.627 399.01L261.81 328.991C285.702 326.365 310.167 324.259 334.059 325.009V288.572C314.51 289.532 287.586 292.187 269.031 295.477Z" fill="#262626"/>
<path opacity="0.05" d="M269.031 295.477C260.539 296.984 257.254 297.653 251.176 301.098C249.385 302.112 243.782 306.147 237.61 313.303C216.823 337.408 164.572 376.803 160.695 379.718L183.627 399.01L261.81 328.991C285.702 326.365 310.167 324.259 334.059 325.009V288.572C314.51 289.532 287.586 292.187 269.031 295.477Z" fill="black"/>
<path d="M357.357 333.092L353.266 296.855C333.726 299.795 309.103 303.163 289.02 307.432C281.567 309.015 274.117 309.512 269.033 312.58C262.537 316.497 262.838 316.976 257.031 322.706C233.26 346.163 171.004 393.691 166.875 396.436L187.099 416.774L283.649 344.696C307.686 340.679 333.554 336.003 357.357 333.092Z" fill="#262626"/>
<path d="M371.468 208.63C370.121 205.755 368.986 200.363 371.028 190.835L357.742 186.961C357.742 186.961 357.374 202.176 349.953 206.247L371.468 208.63Z" fill="#E98862"/>
<path opacity="0.15" d="M353.086 203.425L365.383 196.548L356.533 195.48C355.92 198.308 354.751 201.002 353.086 203.425Z" fill="black"/>
<path d="M379.542 185.154C377.963 190.164 374.395 194.678 369.398 195.799C363.933 197.172 358.195 197.264 352.683 196.069C337.962 193.274 344.877 161.77 352.708 156.369C360.538 150.969 380.764 157.175 381.991 167.799C382.626 173.291 381.045 180.387 379.542 185.154Z" fill="#E98862"/>
<path d="M342.359 167.03C342.359 167.03 348.099 144.729 373.793 153.209C377.927 154.747 381.437 157.48 383.818 161.014C385.118 159.118 386.991 157.633 389.196 156.749C391.401 155.865 393.836 155.623 396.189 156.055C398.541 156.486 400.702 157.572 402.393 159.171C404.084 160.77 405.228 162.809 405.676 165.026C406.125 167.243 405.858 169.535 404.91 171.608C403.962 173.68 402.377 175.438 400.358 176.654C398.339 177.87 395.98 178.489 393.584 178.431C391.188 178.372 388.866 177.639 386.917 176.327C386.853 176.649 386.787 176.971 386.707 177.294C383.341 191.124 370.086 196.763 370.086 196.763C370.086 196.763 367.058 194.023 371.068 171.526C365.284 171.357 352.088 170.569 342.359 167.03Z" fill="#0F1011"/>
<path d="M358.92 178.869C359.605 178.869 360.16 178.346 360.16 177.701C360.16 177.056 359.605 176.533 358.92 176.533C358.235 176.533 357.68 177.056 357.68 177.701C357.68 178.346 358.235 178.869 358.92 178.869Z" fill="#0F1011"/>
<path d="M349.295 177.043C349.98 177.043 350.535 176.52 350.535 175.875C350.535 175.23 349.98 174.707 349.295 174.707C348.61 174.707 348.055 175.23 348.055 175.875C348.055 176.52 348.61 177.043 349.295 177.043Z" fill="#0F1011"/>
<path d="M347.47 173.166H347.477L350.744 173.489C350.895 173.5 351.045 173.456 351.162 173.365C351.279 173.275 351.354 173.145 351.371 173.003C351.388 172.861 351.345 172.718 351.252 172.606C351.16 172.493 351.024 172.418 350.874 172.398H350.866L347.599 172.076C347.448 172.064 347.298 172.109 347.181 172.199C347.064 172.29 346.989 172.42 346.972 172.562C346.956 172.704 346.998 172.846 347.091 172.959C347.184 173.072 347.32 173.146 347.47 173.166Z" fill="#0F1011"/>
<path d="M361.837 175.894C361.979 175.91 362.122 175.876 362.239 175.799C362.356 175.722 362.439 175.607 362.473 175.476C362.506 175.346 362.487 175.208 362.419 175.089C362.351 174.971 362.24 174.88 362.105 174.833L358.98 173.749C358.835 173.698 358.674 173.704 358.534 173.765C358.394 173.826 358.285 173.937 358.231 174.074C358.178 174.21 358.184 174.361 358.249 174.494C358.314 174.626 358.432 174.728 358.577 174.779L361.702 175.863C361.746 175.879 361.791 175.889 361.837 175.894Z" fill="#0F1011"/>
<path d="M357.205 186.773C357.205 186.773 352.602 186.721 349.547 185.322C349.547 185.322 349.22 188.143 352.783 188.821C356.346 189.499 357.205 186.773 357.205 186.773Z" fill="#F8FCFF"/>
<path d="M364.968 181.249C364.709 182.53 364.996 183.856 365.769 184.938C366.541 186.02 367.736 186.772 369.094 187.03C370.451 187.287 371.862 187.03 373.019 186.314C374.177 185.599 374.987 184.482 375.275 183.206C375.424 182.568 375.435 181.908 375.307 181.266C375.179 180.624 374.915 180.012 374.531 179.468C374.147 178.924 373.651 178.458 373.072 178.099C372.493 177.739 371.843 177.493 371.16 177.374C367.453 176.847 365.54 178.567 364.968 181.249Z" fill="#E98862"/>
<g opacity="0.15">
<path d="M352.641 183.527C352.743 183.538 352.846 183.515 352.931 183.461C353.016 183.407 353.078 183.326 353.105 183.233C353.132 183.14 353.123 183.041 353.079 182.953C353.034 182.866 352.959 182.797 352.865 182.758L350.449 181.756L352.661 178.276C352.719 178.184 352.737 178.075 352.709 177.971C352.681 177.867 352.611 177.778 352.514 177.723C352.416 177.668 352.3 177.652 352.19 177.678C352.08 177.704 351.985 177.77 351.927 177.862L349.467 181.73C349.436 181.779 349.416 181.834 349.409 181.891C349.402 181.947 349.408 182.005 349.426 182.059C349.445 182.114 349.475 182.164 349.516 182.206C349.556 182.249 349.606 182.283 349.661 182.306L352.519 183.492C352.558 183.509 352.599 183.521 352.641 183.527Z" fill="black"/>
</g>
<path d="M257.851 265.93C255.678 267.189 249.121 272.476 247.468 271.04C246.476 270.178 251.085 265.812 251.085 265.812" fill="#E98862"/>
<path d="M256.369 256.488C256.369 256.488 235.261 259.89 231.066 271.237C230.959 271.526 230.948 271.838 231.033 272.134C231.118 272.429 231.296 272.694 231.543 272.893C231.79 273.091 232.095 273.215 232.418 273.248C232.742 273.281 233.068 273.222 233.355 273.077C239.24 270.101 251.609 264.421 252.551 268.737L261.709 263.43" fill="#E98862"/>
<path d="M254.932 270.572L251.289 253.338L295.946 244.97L327.215 207.793L341.844 218.703L308.445 258.412C307.071 260.046 305.123 261.167 302.952 261.574L254.932 270.572Z" fill="#367CFF"/>
<path d="M307.7 290.503C309.046 298.871 374.919 313.395 378.395 304.914C381.724 296.792 377.675 284.257 380.904 267.6C384.132 250.944 404.526 232.469 393.69 217.703C390.543 213.418 384.354 209.938 376.256 208.538C374.788 212.882 346.108 207.97 346.734 203.571C345.636 203.399 344.783 203.269 344.252 203.201C316.094 199.534 322.569 231.581 318.576 253.62C313.911 279.41 306.672 284.111 307.7 290.503Z" fill="#367CFF"/>
<path d="M346.733 203.574C346.106 207.973 347.381 214.819 355.058 216.638C365.29 219.056 374.786 212.885 376.255 208.541H376.229C366.033 206.782 352.694 204.506 346.733 203.574Z" fill="#E98862"/>
<path d="M351.726 291.826H342.578V338.842H351.726V291.826Z" fill="#DEE8F5"/>
<path d="M327.049 283.99H366.743C369.835 283.99 372.801 285.147 374.988 287.206C377.175 289.265 378.403 292.058 378.403 294.97H315.391C315.391 292.058 316.619 289.266 318.805 287.207C320.992 285.148 323.957 283.991 327.049 283.99Z" fill="#DEE8F5"/>
<path d="M334.065 275.855C334.065 275.855 315.921 278.354 311.722 289.707C311.615 289.996 311.604 290.309 311.689 290.604C311.775 290.899 311.952 291.163 312.199 291.362C312.447 291.561 312.752 291.685 313.075 291.717C313.398 291.75 313.724 291.691 314.01 291.547C319.895 288.571 336.58 285.461 336.58 285.461" fill="#E98862"/>
<path d="M333.628 288.367L331.969 270.868L377.507 267.04L378.277 226.201L396.935 226.513L396.014 275.243C395.973 277.411 395.083 279.488 393.513 281.075C391.944 282.662 389.807 283.647 387.513 283.839L333.628 288.367Z" fill="#367CFF"/>
<path d="M327.487 278.845C327.487 278.845 322.626 277.993 319.911 278.765C316.704 279.676 323.708 281.989 323.708 281.989" fill="#E98862"/>
<path d="M91.2636 23.582H11.25V111.141H91.2636V23.582Z" fill="#F3F5FD"/>
<path d="M69.8036 65.4513C67.2122 68.9969 65.4654 73.028 64.6829 77.2685L63.2801 84.8151C63.1308 85.6172 62.6836 86.3432 62.0185 86.8636C61.3533 87.3839 60.5134 87.6648 59.6486 87.656C58.8335 87.6476 58.0448 87.3822 57.4087 86.9021C56.7726 86.4221 56.3258 85.7551 56.1396 85.0077L55.2692 81.5205C54.997 79.5742 53.643 78.118 51.5564 78.1147H51.3681C50.3899 78.1253 49.4515 78.4811 48.7383 79.1117C48.0252 79.7423 47.5893 80.6019 47.5167 81.5205L46.642 85.0118C46.4547 85.7582 46.0074 86.4241 45.3714 86.9034C44.7355 87.3826 43.9474 87.6476 43.1329 87.656C42.268 87.6647 41.428 87.3836 40.763 86.8629C40.0979 86.3422 39.6511 85.6158 39.5023 84.8135L37.8316 77.2685C37.0494 73.028 35.3029 68.9969 32.7118 65.4513C31.1578 63.3371 30.3854 60.8003 30.5138 58.2319C30.6421 55.6635 31.6639 53.2062 33.4218 51.2387C35.1797 49.2711 37.5761 47.9027 40.2415 47.3442C42.9069 46.7857 45.6934 47.0683 48.1714 48.1483C49.1368 48.5742 50.1899 48.795 51.256 48.795C52.3221 48.795 53.3751 48.5742 54.3405 48.1483C56.8186 47.0683 59.6051 46.7857 62.2705 47.3442C64.9359 47.9027 67.3322 49.2711 69.0901 51.2387C70.848 53.2062 71.8699 55.6635 71.9982 58.2319C72.1265 60.8003 71.3541 63.3371 69.8001 65.4513H69.8036Z" fill="white"/>
</g>
<defs>
<clipPath id="clip0_2674_10493">
<rect width="409" height="448" fill="white"/>
</clipPath>
</defs>
</svg>
